<?xml version="1.0" encoding="UTF-8"?><svg id="Layer_1" xmlns="http://www.w3.org/2000/svg" viewBox="0 0 628.47 628.47"><defs><style>.cls-1{fill:#1a1818;}.cls-1,.cls-2{stroke-width:0px;}.cls-2{fill:#3f61ac;}</style></defs><g id="Artwork_44"><g id="Group_2"><path id="Path_30" class="cls-2" d="m314.39,8.28c168.96.1,305.86,137.15,305.76,306.11-.1,168.96-137.15,305.86-306.11,305.76-168.89-.1-305.76-137.04-305.76-305.94C8.33,145.2,145.38,8.23,314.39,8.28h0Z"/><path id="Path_30_-_Outline" class="cls-1" d="m314.39,0c173.55.09,314.16,140.84,314.08,314.39-.09,173.55-140.84,314.16-314.39,314.08C140.59,628.38,0,487.72,0,314.23.23,140.72,140.88.15,314.39,0Zm0,611.87c164.39-.11,297.57-133.47,297.46-297.86-.11-164.39-133.47-297.57-297.86-297.46-164.31.11-297.45,133.33-297.46,297.64.23,164.38,133.48,297.55,297.86,297.68Z"/><circle id="Ellipse_2" class="cls-1" cx="444.31" cy="260.35" r="70.22"/><path id="Path_11" class="cls-1" d="m315.61,472.7h-3.58c-51-1.21-99.56-22.04-135.59-58.16-3.39-4-2.89-9.99,1.11-13.38,3.59-3.04,8.86-2.99,12.39.1,32.7,32.36,76.45,51.13,122.44,52.51,47.14.29,92.55-17.71,126.69-50.21,3.76-3.67,9.78-3.59,13.44.17,3.67,3.76,3.59,9.78-.17,13.44h0c-36.94,35.09-85.79,54.93-136.74,55.52Z"/><rect id="Rectangle_3" class="cls-1" x="185.31" y="266.41" width="199.41" height="13.1"/><circle id="Ellipse_3" class="cls-1" cx="153.58" cy="272.96" r="39.3"/></g></g></svg>