<svg xmlns="http://www.w3.org/2000/svg" width="111.577" height="49.803" viewBox="0 0 111.577 49.803">
  <g id="Group_744" data-name="Group 744" transform="translate(-123.009 -7839.401)">
    <path id="Path_1092" data-name="Path 1092" d="M15.668,0Q26.7,0,26.7,4.563a3.34,3.34,0,0,1-.563,2.015,7.494,7.494,0,0,1-2.158,1.732,3.738,3.738,0,0,0-1.753,2.229,26.493,26.493,0,0,0-.369,5.587q0,2.476.92,3.042a3.3,3.3,0,0,0,1.608.423q1.078.073,5.075.071a15.17,15.17,0,0,0,4.527-.387q.883-.39.884-1.946a33.249,33.249,0,0,0-.425-6.507,3.559,3.559,0,0,0-1.661-2.512,7.59,7.59,0,0,1-2.051-1.5,2.56,2.56,0,0,1-.494-1.646,3.79,3.79,0,0,1,1.1-2.634A5.566,5.566,0,0,1,34.2.92,40.428,40.428,0,0,1,43.43.036q6.5,0,9.6,1.185t3.1,3.7A3.4,3.4,0,0,1,53.931,8.1a4.723,4.723,0,0,0-1.8,1.22,5.39,5.39,0,0,0-.673,2.173q-.141.887-.354,7.852t-.211,11.07q0,7.181.53,9.123a3.333,3.333,0,0,0,.637,1.417,6.539,6.539,0,0,0,.971.678c3.488,2.145,3.3,5.383-.517,6.876l-.082.031q-3.2,1.223-10.379,1.22-6.294,0-9.3-1.236-2.725-1.135-2.723-3.5a3.472,3.472,0,0,1,2.089-3.149,3.923,3.923,0,0,0,1.4-1.131,7.185,7.185,0,0,0,.724-2.087,35.323,35.323,0,0,0,.637-7.284q0-2.228-.655-2.759t-3.411-.53q-6.332,0-8.063.706c-.471.191-.767.744-.884,1.664a34.221,34.221,0,0,0-.211,4.173q0,4.032,1.131,5.8a6.319,6.319,0,0,0,1.839,1.45A2.97,2.97,0,0,1,26.1,44.666q0,2.476-3.429,3.786a28.667,28.667,0,0,1-9.8,1.307,31.079,31.079,0,0,1-9.477-1.2A5.826,5.826,0,0,1,.9,47.053a3.079,3.079,0,0,1-.9-2.14,2.619,2.619,0,0,1,.566-1.8,9.438,9.438,0,0,1,2.476-1.628,3.013,3.013,0,0,0,1.4-1.274,8.033,8.033,0,0,0,.619-2.616,88.452,88.452,0,0,0,.53-10.82c0-.825-.01-1.806-.033-2.937q-.145-8.488-.143-9.689A9.313,9.313,0,0,0,4.9,10.132a6.925,6.925,0,0,0-2.884-2.14A2.374,2.374,0,0,1,.461,5.765Q.461,2.2,7.391.813A41.913,41.913,0,0,1,15.668,0Z" transform="translate(123.009 7839.443)" fill="#182d1e"/>
    <path id="Path_1093" data-name="Path 1093" d="M16.247,75.332H13.7c-1.488,0-6.927-.089-7.375-.089a6.118,6.118,0,0,1-3.748-1.368,3.4,3.4,0,0,1-1.485-2.864,2.681,2.681,0,0,1,.655-1.929,4.708,4.708,0,0,1,2.14-1.113A2.99,2.99,0,0,0,5.8,66.82a8.559,8.559,0,0,0,.78-3.1q.283-2.652.512-10.326t.229-15.243a11,11,0,0,0-.461-3.962A3.487,3.487,0,0,0,4.7,32.6a3.24,3.24,0,0,1-2.441-3.149A3,3,0,0,1,3.94,26.75a9.427,9.427,0,0,1,4.688-.973c.657,0,1.437.013,2.334.038q2.969.1,4.316.1,5.056,0,11.421-.318,1.341-.069,3.36-.071,8.1,0,12.8,1.839A19.935,19.935,0,0,1,53.4,36.635a27.942,27.942,0,0,1,3.149,13.65A28.54,28.54,0,0,1,55.377,58.3a24.555,24.555,0,0,1-3.146,6.948,21.633,21.633,0,0,1-11.317,8.346,38.08,38.08,0,0,1-13.35,1.717S18.416,75.332,16.247,75.332ZM23.8,36.281V63.654a4.326,4.326,0,0,0,.955,3.167,4.443,4.443,0,0,0,3.182.935,8.727,8.727,0,0,0,3.985-.973c4.056-2.176,5.238-7.291,5.773-9.615a24.781,24.781,0,0,0,.568-5.113,26.655,26.655,0,0,0-2.4-13.439q-2.652-5.266-8.983-5.269a3.381,3.381,0,0,0-2.385.673A3.07,3.07,0,0,0,23.8,36.281Z" transform="translate(178.039 7813.871)" fill="#182d1e"/>
  </g>
</svg>
