<svg width="512" height="504" viewBox="0 0 512 504" fill="none" xmlns="http://www.w3.org/2000/svg">
<path d="M510.161 252.079C510.161 264.864 433.523 270.832 431.389 283.009C429.195 295.533 499.15 327.244 494.896 338.919C490.561 350.809 416.533 330.164 410.272 340.971C403.957 351.878 458.775 405.67 450.714 415.26C442.627 424.884 380.11 380.227 370.478 388.307C360.879 396.367 394.091 465.617 383.167 471.926C372.351 478.181 328.871 414.899 316.971 419.223C305.279 423.474 312.697 499.908 300.168 502.1C287.64 504.292 268.883 429.889 256.08 429.889C243.277 429.889 224.18 504.232 211.992 502.1C199.457 499.908 206.875 423.474 195.189 419.217C183.289 414.886 139.81 478.168 128.993 471.919C118.077 465.611 151.288 396.36 141.683 388.301C132.05 380.221 69.5335 424.87 61.4464 415.254C53.3793 405.663 108.203 351.871 101.889 340.964C95.5744 330.058 21.5992 350.802 17.2646 338.913C13.0103 327.231 82.9653 295.519 80.7713 283.002C78.6375 270.825 2 264.857 2 252.073C2 239.288 78.6375 233.32 80.7713 221.143C82.9653 208.619 13.0103 176.908 17.2646 165.233C21.5992 153.343 95.6279 173.987 101.889 163.181C108.15 152.374 53.386 98.4819 61.4464 88.8917C69.5335 79.268 132.05 123.924 141.683 115.845C151.282 107.785 118.07 38.5346 128.993 32.2258C139.81 25.9704 183.289 89.2526 195.189 84.9286C206.882 80.6782 199.463 4.24372 211.992 2.05167C224.521 -0.140382 243.277 74.2624 256.08 74.2624C268.883 74.2624 287.981 -0.0869176 300.168 2.04499C312.704 4.23704 305.286 80.6715 316.971 84.9286C328.871 89.2593 372.351 25.9771 383.167 32.2258C394.084 38.5346 360.872 107.785 370.478 115.845C380.11 123.924 442.627 79.2747 450.714 88.8917C458.801 98.5086 403.957 152.274 410.272 163.181C416.533 173.987 490.561 153.343 494.896 165.233C499.15 176.915 429.195 208.626 431.389 221.143C433.523 233.32 510.161 239.288 510.161 252.073V252.079Z" fill="#5F8963"/>
<path d="M510.161 252.079C510.161 264.864 433.523 270.832 431.389 283.009C429.195 295.533 499.15 327.244 494.896 338.919C490.561 350.809 416.533 330.164 410.272 340.971C403.957 351.878 458.775 405.67 450.714 415.26C442.627 424.884 380.11 380.227 370.478 388.307C360.879 396.367 394.091 465.617 383.167 471.926C372.351 478.181 328.871 414.899 316.971 419.223C305.279 423.474 312.697 499.908 300.168 502.1C287.64 504.292 268.883 429.889 256.08 429.889C243.277 429.889 224.18 504.232 211.992 502.1C199.457 499.908 206.875 423.474 195.189 419.217C183.289 414.886 139.81 478.168 128.993 471.919C118.077 465.611 151.288 396.36 141.683 388.301C132.05 380.221 69.5335 424.87 61.4464 415.254C53.3793 405.663 108.203 351.871 101.889 340.964C95.5744 330.058 21.5992 350.802 17.2646 338.913C13.0103 327.231 82.9653 295.519 80.7713 283.002C78.6375 270.825 2 264.857 2 252.073C2 239.288 78.6375 233.32 80.7713 221.143C82.9653 208.619 13.0103 176.908 17.2646 165.233C21.5992 153.343 95.6279 173.987 101.889 163.181C108.15 152.374 53.386 98.4819 61.4464 88.8917C69.5335 79.268 132.05 123.924 141.683 115.845C151.282 107.785 118.07 38.5346 128.993 32.2258C139.81 25.9704 183.289 89.2526 195.189 84.9286C206.882 80.6782 199.463 4.24372 211.992 2.05167C224.521 -0.140382 243.277 74.2624 256.08 74.2624C268.883 74.2624 287.981 -0.0869176 300.168 2.04499C312.704 4.23704 305.286 80.6715 316.971 84.9286C328.871 89.2593 372.351 25.9771 383.167 32.2258C394.084 38.5346 360.872 107.785 370.478 115.845C380.11 123.924 442.627 79.2747 450.714 88.8917C458.801 98.5086 403.957 152.274 410.272 163.181C416.533 173.987 490.561 153.343 494.896 165.233C499.15 176.915 429.195 208.626 431.389 221.143C433.523 233.32 510.161 239.288 510.161 252.073V252.079Z" stroke="#231F20" stroke-width="2.76" stroke-miterlimit="10"/>
<path d="M181.04 270.55H161.93L158.57 280H148.14L165.57 231.98H178.45L195.88 280H184.54L181.04 270.55ZM164.87 262.36H178.17C176.397 257.087 174.25 250.81 171.73 243.53H171.38L164.87 262.36ZM210.828 248.36C211.855 247.007 213.208 245.863 214.888 244.93C216.615 243.997 218.598 243.53 220.838 243.53C223.452 243.53 225.785 244.207 227.838 245.56C229.938 246.913 231.595 248.943 232.808 251.65C234.022 254.357 234.628 257.647 234.628 261.52V262.29C234.628 266.35 233.975 269.757 232.668 272.51C231.362 275.263 229.588 277.317 227.348 278.67C225.108 280.023 222.588 280.7 219.788 280.7C217.222 280.7 214.935 280.187 212.928 279.16C210.922 278.087 209.242 276.547 207.888 274.54L206.698 276.36C206.232 277.153 205.788 277.853 205.368 278.46C204.948 279.02 204.598 279.533 204.318 280H200.608V229.6H210.828V248.36ZM224.268 259.42C224.268 256.667 223.638 254.567 222.378 253.12C221.118 251.673 219.508 250.95 217.548 250.95C215.588 250.95 213.978 251.673 212.718 253.12C211.458 254.567 210.828 256.667 210.828 259.42V265.23C210.828 267.937 211.458 270.037 212.718 271.53C213.978 272.977 215.588 273.7 217.548 273.7C219.508 273.7 221.118 272.977 222.378 271.53C223.638 270.037 224.268 267.937 224.268 265.23V259.42ZM276.749 263.13C276.749 266.723 275.979 269.85 274.439 272.51C272.946 275.17 270.869 277.2 268.209 278.6C265.549 280 262.562 280.7 259.249 280.7H258.129C254.816 280.7 251.829 280 249.169 278.6C246.509 277.2 244.409 275.17 242.869 272.51C241.376 269.85 240.629 266.723 240.629 263.13V261.1C240.629 257.507 241.376 254.38 242.869 251.72C244.409 249.06 246.509 247.03 249.169 245.63C251.829 244.23 254.816 243.53 258.129 243.53H259.249C262.562 243.53 265.549 244.23 268.209 245.63C270.869 247.03 272.946 249.06 274.439 251.72C275.979 254.38 276.749 257.507 276.749 261.1V263.13ZM266.389 259.28C266.389 256.433 265.666 254.263 264.219 252.77C262.819 251.277 260.976 250.53 258.689 250.53C256.402 250.53 254.536 251.277 253.089 252.77C251.689 254.263 250.989 256.433 250.989 259.28V264.95C250.989 267.797 251.689 269.967 253.089 271.46C254.536 272.953 256.402 273.7 258.689 273.7C260.976 273.7 262.819 272.953 264.219 271.46C265.666 269.967 266.389 267.797 266.389 264.95V259.28ZM316.899 271.6C316.899 272.3 317.109 272.837 317.529 273.21C317.949 273.537 318.415 273.7 318.929 273.7C319.395 273.7 319.909 273.607 320.469 273.42C321.029 273.233 321.472 273.07 321.799 272.93V279.23C320.072 280.21 318.019 280.7 315.639 280.7C310.972 280.7 308.265 278.997 307.519 275.59C304.579 278.997 300.985 280.7 296.739 280.7C293.099 280.7 290.089 279.72 287.709 277.76C285.375 275.8 284.209 272.953 284.209 269.22V244.23H294.429V266.98C294.429 268.8 294.942 270.317 295.969 271.53C297.042 272.697 298.395 273.28 300.029 273.28C301.849 273.28 303.412 272.603 304.719 271.25C306.025 269.85 306.679 268.17 306.679 266.21V244.23H316.899V271.6ZM346.6 279.37C345.667 279.743 344.43 280.047 342.89 280.28C341.397 280.56 340.067 280.7 338.9 280.7C335.307 280.7 332.6 279.93 330.78 278.39C328.96 276.85 328.05 274.283 328.05 270.69V251.23H324.13V244.23H328.4L331.97 232.82H338.27V244.23H346.6V251.23H338.27V268.94C338.27 270.807 338.62 272.067 339.32 272.72C340.067 273.373 341.047 273.7 342.26 273.7C342.82 273.7 343.543 273.607 344.43 273.42C345.317 273.233 346.04 273.023 346.6 272.79V279.37Z" fill="black"/>
</svg>
