<svg width="199" height="88" viewBox="0 0 199 88" fill="none" xmlns="http://www.w3.org/2000/svg">
<g clip-path="url(#clip0_447_26)">
<path d="M99.5552 86.6111C153.751 86.5448 197.662 67.4101 197.633 43.8728C197.605 20.3354 153.647 1.30832 99.4512 1.37467C45.2554 1.44102 1.34425 20.5756 1.37294 44.113C1.40164 67.6504 45.3593 86.6775 99.5552 86.6111Z" fill="#5F8963" stroke="#192D1E" stroke-width="3" stroke-miterlimit="10"/>
<path d="M33.8248 34.5573C36.5092 34.5573 37.8559 35.1449 37.8559 36.3109C37.8651 36.5863 37.7918 36.8526 37.6452 37.0821C37.4253 37.3484 37.1596 37.5779 36.8573 37.7431C36.5366 37.9359 36.3076 38.2389 36.216 38.597C36.0969 39.3039 36.0511 40.02 36.0786 40.7362C36.0786 41.3696 36.1885 41.7552 36.4175 41.9021C36.5916 42.0031 36.8023 42.0674 37.0039 42.0674C37.2696 42.0858 37.8834 42.0949 38.8545 42.0949C39.4134 42.1317 39.9723 42.0858 40.5128 41.9481C40.7327 41.8471 40.8335 41.5992 40.8335 41.2044C40.8609 40.3689 40.806 39.5334 40.6777 38.7072C40.6227 38.3124 40.4029 37.9635 40.073 37.7431C39.789 37.5963 39.5417 37.4035 39.3218 37.1647C39.1935 36.9811 39.1294 36.7608 39.1386 36.5313C39.1386 36.1548 39.2851 35.7968 39.5417 35.5213C39.8165 35.2092 40.183 34.998 40.5861 34.9062C41.6947 34.6583 42.8215 34.5482 43.9576 34.5665C45.1486 34.5114 46.3304 34.6675 47.4665 35.0164C48.117 35.1816 48.575 35.76 48.6025 36.4303C48.6025 36.9628 48.291 37.4494 47.7963 37.6513C47.5398 37.7523 47.3199 37.9176 47.1367 38.1196C46.9992 38.3766 46.9168 38.6612 46.8893 38.955C46.8527 39.1846 46.816 40.1853 46.761 41.9664C46.7061 43.7475 46.6877 45.1614 46.6877 46.208C46.6419 47.374 46.7061 48.5492 46.8801 49.706C46.9168 49.8988 46.9901 50.0916 47.1092 50.2477C47.2191 50.3487 47.3382 50.4313 47.4665 50.5048C48.74 51.331 48.6667 52.5705 47.2741 53.1397H47.2466C46.0189 53.5253 44.7363 53.6814 43.4537 53.6171C42.2993 53.6722 41.145 53.5161 40.0547 53.1397C39.4684 52.9561 39.0653 52.4144 39.0561 51.7993C39.0561 51.2851 39.3584 50.8169 39.8165 50.5966C40.0181 50.4956 40.1921 50.3487 40.3296 50.1651C40.4578 49.9172 40.5494 49.6417 40.5953 49.3663C40.7602 48.4482 40.8426 47.5117 40.8243 46.5753C40.8243 46.0061 40.7418 45.6572 40.5861 45.5195C40.2013 45.3358 39.7615 45.2624 39.3401 45.3175C38.3507 45.2532 37.352 45.345 36.3901 45.5929C36.216 45.6664 36.1061 45.8775 36.0694 46.2264C36.0144 46.7589 35.987 47.2914 35.9961 47.8239C35.9411 48.5859 36.0786 49.3571 36.4084 50.0457C36.5916 50.2752 36.8207 50.4588 37.0772 50.6057C37.4437 50.8353 37.6544 51.2484 37.6177 51.6799C37.6177 52.3134 37.1963 52.8 36.3626 53.1305C35.2082 53.5161 33.9989 53.6814 32.7804 53.6355C31.6077 53.6722 30.435 53.5161 29.3173 53.1764C28.9691 53.0663 28.6576 52.8735 28.4103 52.598C28.1996 52.3777 28.0805 52.0839 28.0805 51.7717C28.0621 51.5238 28.1354 51.276 28.2912 51.0832C28.5569 50.8261 28.8592 50.6149 29.1982 50.4588C29.4181 50.3579 29.5921 50.1834 29.7112 49.9723C29.8395 49.6509 29.9128 49.3112 29.9403 48.9715C30.0869 47.5944 30.151 46.208 30.1327 44.8217C30.1327 44.5096 30.1327 44.1331 30.1235 43.6924C30.0869 41.5257 30.0685 40.2863 30.0685 39.9741C30.1143 39.4508 30.0502 38.9275 29.8761 38.4317C29.6013 38.0737 29.244 37.7891 28.8225 37.6146C28.4744 37.4769 28.2545 37.1372 28.2545 36.7608C28.2545 35.8519 29.0974 35.2184 30.7923 34.8603C31.7909 34.6491 32.7987 34.5482 33.8156 34.5482L33.8248 34.5573Z" fill="#192D1E"/>
<path d="M60.0363 47.1812H53.9529C53.6689 47.2088 53.4307 47.3924 53.33 47.6586C53.0918 48.3564 53.3574 49.1184 53.9713 49.5132C54.6309 49.9447 55.4096 50.1467 56.1975 50.0916C57.132 50.0549 58.0482 49.7519 58.8178 49.2194C59.0102 49.045 59.2575 48.9348 59.5141 48.8889C59.8439 48.8613 60.1645 48.9807 60.4027 49.2102C60.6043 49.4673 60.7234 49.7794 60.7234 50.1008C60.6501 50.8812 60.2195 51.5789 59.5599 51.9829C58.2131 53.0479 56.5365 53.6171 54.8141 53.5988C53.1467 53.6538 51.516 53.0571 50.2608 51.9462C49.6561 51.3861 49.1522 50.7159 48.7858 49.9814C48.2269 48.8705 47.9612 47.6219 48.0345 46.3825C48.2361 42.6274 51.351 39.6987 55.0982 39.7354C56.619 39.6987 58.1032 40.2128 59.2759 41.1952C59.853 41.6818 60.3203 42.2694 60.6684 42.9304C61.0532 43.6098 61.2639 44.3718 61.2731 45.1522C61.2914 45.6572 61.1723 46.1529 60.925 46.5936C60.7509 46.9333 60.4027 47.1537 60.018 47.1537L60.0363 47.1812ZM54.3011 45.042H55.602C56.1517 45.042 56.4266 44.7758 56.4266 44.2433C56.4449 43.6833 56.3075 43.1324 56.0235 42.6458C55.5013 42.0674 54.6217 42.0307 54.0446 42.5448C53.9713 42.6183 53.898 42.6917 53.843 42.7743C53.5956 43.2426 53.4582 43.7659 53.4582 44.2984C53.4399 44.5095 53.504 44.7115 53.6414 44.8676C53.8338 44.9961 54.0629 45.0512 54.2919 45.0329L54.3011 45.042Z" fill="#192D1E"/>
<path d="M169.921 44.3535L164.561 47.374C164.332 47.5485 164.204 47.8239 164.232 48.1085C164.332 48.8246 164.919 49.3755 165.642 49.4214C166.43 49.4673 167.209 49.2561 167.869 48.8246C168.281 48.5767 168.647 48.2738 168.968 47.9157C169.298 47.576 169.573 47.1812 169.784 46.7497C169.875 46.5018 170.04 46.2815 170.251 46.1162C170.516 45.9326 170.855 45.8683 171.176 45.9601C171.469 46.0795 171.717 46.309 171.863 46.5845C172.156 47.1629 172.101 47.9065 171.689 48.8246C170.993 50.4313 169.774 51.7625 168.244 52.6072C166.824 53.4794 165.12 53.7732 163.489 53.4151C162.702 53.2223 161.959 52.8918 161.3 52.4144C160.301 51.7075 159.504 50.7435 159.009 49.6234C158.469 48.4115 158.277 47.0619 158.469 45.7398C158.79 43.4262 160.173 41.388 162.216 40.2496C163.517 39.46 165.056 39.1754 166.549 39.46C167.273 39.5977 167.951 39.8823 168.565 40.2955C169.216 40.7086 169.747 41.2778 170.104 41.948C170.352 42.3887 170.471 42.8845 170.452 43.3895C170.452 43.7751 170.251 44.1331 169.912 44.3351L169.921 44.3535ZM163.902 45.3358L165.047 44.684C165.432 44.5371 165.633 44.1056 165.487 43.72C165.468 43.6649 165.441 43.619 165.413 43.5731C165.175 43.0773 164.809 42.6642 164.342 42.3704C163.966 42.2327 163.554 42.2786 163.215 42.4897C162.802 42.7101 162.528 43.114 162.482 43.5823C162.482 44.1148 162.592 44.6381 162.83 45.1155C162.903 45.3083 163.059 45.4552 163.251 45.5195C163.48 45.5378 163.709 45.4736 163.902 45.3358Z" fill="#192D1E"/>
<path d="M68.6665 42.5907V46.9425C68.6665 48.8706 68.694 49.9906 68.749 50.3028C68.8223 50.6425 69.0605 50.9179 69.3903 51.0373C69.6285 51.1291 69.8484 51.2668 70.0316 51.4412C70.1507 51.5973 70.2057 51.7901 70.1965 51.9829C70.1965 52.2859 70.0866 52.5705 69.8942 52.8C69.6834 53.0479 69.3994 53.2315 69.0879 53.3142C68.1809 53.5712 67.2465 53.6814 66.3028 53.6355C65.121 53.6998 63.9391 53.5621 62.8031 53.2407C62.5007 53.1305 62.2442 52.9377 62.0426 52.6899C61.8594 52.4695 61.7495 52.1941 61.7495 51.9095C61.7403 51.7259 61.7953 51.5514 61.9144 51.4045C62.1251 51.2209 62.3633 51.0832 62.6198 50.9822C62.9588 50.8261 63.1604 50.4038 63.2428 49.7152C63.3986 48.0443 63.4719 46.3733 63.4535 44.7024C63.4902 43.2793 63.4352 41.8563 63.2703 40.4424C63.1512 39.8089 62.9863 39.2029 62.3633 39.0285C62.0518 38.9183 61.7861 38.698 61.6212 38.4134C61.4838 38.2022 61.4105 37.9543 61.4197 37.6973C61.4197 37.2382 61.6578 36.8067 62.0243 36.5405C62.6107 36.1181 63.2703 35.8152 63.9666 35.6224C64.727 35.3928 65.4966 35.2092 66.2845 35.0807C66.9624 34.943 67.6587 34.8512 68.355 34.8236C69.033 34.8236 69.0147 35.2459 69.0147 36.1273C69.0147 36.4119 68.9688 37.0821 68.8864 38.1196C68.7764 39.7354 68.7123 41.2228 68.694 42.5724L68.6665 42.5907Z" fill="#192D1E"/>
<path d="M78.8359 42.5907V46.9425C78.8359 48.8706 78.8634 49.9906 78.9184 50.3028C78.9917 50.6425 79.2299 50.9179 79.5597 51.0373C79.7979 51.1291 80.0178 51.2668 80.201 51.4412C80.3201 51.5973 80.3751 51.7901 80.3659 51.9829C80.3659 52.2859 80.256 52.5705 80.0636 52.8C79.8529 53.0479 79.5689 53.2315 79.2574 53.3142C78.3504 53.5712 77.4159 53.6814 76.4722 53.6355C75.2904 53.6998 74.1085 53.5621 72.9725 53.2407C72.6702 53.1305 72.4045 52.9377 72.2121 52.6899C72.0288 52.4695 71.9189 52.1941 71.9189 51.9095C71.9097 51.7259 71.9647 51.5514 72.0838 51.4045C72.2945 51.2209 72.5327 51.0832 72.7893 50.9822C73.1282 50.8261 73.3298 50.4038 73.4122 49.7152C73.568 48.0443 73.6413 46.3733 73.623 44.7024C73.6596 43.2793 73.6046 41.8563 73.4397 40.4424C73.3206 39.8089 73.1557 39.2029 72.5327 39.0285C72.2212 38.9183 71.9556 38.698 71.7906 38.4134C71.6532 38.2022 71.5799 37.9543 71.5891 37.6973C71.5891 37.2382 71.8273 36.8067 72.1938 36.5405C72.7801 36.1181 73.4397 35.8152 74.136 35.6224C74.8964 35.3928 75.666 35.2092 76.4539 35.0807C77.1319 34.943 77.8282 34.8512 78.5244 34.8236C79.2024 34.8236 79.1841 35.2459 79.1841 36.1273C79.1841 36.4119 79.1383 37.0821 79.0558 38.1196C78.9459 39.7354 78.8818 41.2228 78.8634 42.5724L78.8359 42.5907Z" fill="#192D1E"/>
<path d="M90.0864 39.9925C91.5523 40.2679 92.899 40.9932 93.9251 42.0858C95.4368 43.7292 96.0965 45.9785 95.7117 48.182C95.3452 50.1192 94.0717 51.7626 92.276 52.5797C90.4712 53.5345 88.3915 53.8191 86.3943 53.3876C84.5619 53.0938 82.9129 52.0839 81.8135 50.5782C80.8057 49.1368 80.4484 47.3465 80.8332 45.6296C81.1355 43.6649 82.299 41.9389 84.0122 40.9473C85.8354 39.8548 88.0067 39.5151 90.0773 40.0017L90.0864 39.9925ZM88.6664 42.958C88.3182 42.8753 87.9518 42.9671 87.6952 43.2059C87.3929 43.4905 87.2005 43.8761 87.1455 44.2892C87.0356 45.0329 86.9989 45.7765 87.0264 46.5202C87.0356 47.3832 87.118 48.2462 87.2555 49.1001C87.3837 49.8804 87.741 50.3303 88.3365 50.4497C89.0878 50.6057 89.555 50.1742 89.7474 49.1735C89.894 48.3105 89.9582 47.4475 89.9307 46.5753C89.9307 45.749 89.8482 44.9227 89.665 44.1148C89.5917 43.5639 89.1977 43.1049 88.6664 42.9488V42.958Z" fill="#192D1E"/>
<path d="M106.183 53.4427H105.249C104.708 53.4427 102.72 53.406 102.555 53.406C102.052 53.3968 101.566 53.2132 101.181 52.8826C100.833 52.6256 100.631 52.2216 100.641 51.7809C100.622 51.5147 100.714 51.2484 100.879 51.0373C101.099 50.8261 101.364 50.6792 101.658 50.6149C101.942 50.569 102.189 50.4038 102.354 50.1742C102.519 49.7978 102.62 49.3939 102.638 48.9899C102.711 48.3105 102.766 46.9884 102.821 45.0329C102.876 43.0681 102.904 41.1218 102.904 39.1846C102.94 38.6704 102.876 38.1563 102.739 37.6697C102.565 37.3667 102.281 37.1464 101.951 37.0638C101.41 36.9077 101.044 36.4119 101.053 35.8519C101.053 35.4204 101.282 35.0164 101.667 34.8144C102.198 34.539 102.784 34.4104 103.38 34.438C103.618 34.438 103.902 34.438 104.232 34.4563C104.956 34.4839 105.487 34.4931 105.808 34.4931C107.035 34.4931 108.428 34.4563 109.985 34.3737C110.315 34.3554 110.718 34.3462 111.213 34.3462C112.807 34.2819 114.392 34.5206 115.895 35.0531C117.571 35.7233 118.936 36.9903 119.743 38.6062C120.549 40.2312 120.943 42.0307 120.897 43.8393C120.897 44.8768 120.75 45.9142 120.466 46.915C120.219 47.8606 119.834 48.7512 119.312 49.5775C118.332 51.0832 116.875 52.2124 115.171 52.7816C113.595 53.305 111.946 53.5253 110.288 53.4427C110.288 53.4427 106.944 53.4427 106.156 53.4427H106.183ZM108.941 38.4684V48.9623C108.895 49.3939 109.024 49.8345 109.289 50.1742C109.61 50.4405 110.031 50.5782 110.453 50.5323C110.966 50.5323 111.461 50.4038 111.909 50.1559C113.394 49.3204 113.824 47.3648 114.017 46.4743C114.154 45.8316 114.218 45.1706 114.227 44.5096C114.365 42.7468 114.062 40.9749 113.348 39.359C112.78 38.0645 111.47 37.2566 110.068 37.3392C109.756 37.3025 109.445 37.4035 109.198 37.5963C109.005 37.8441 108.914 38.1563 108.941 38.4684Z" fill="#192D1E"/>
<path d="M129.527 40.6351V48.5125C129.509 48.9715 129.564 49.4397 129.692 49.8804C129.83 50.2018 130.059 50.4864 130.343 50.6792C130.544 50.8169 130.727 50.9913 130.883 51.1841C130.975 51.3494 131.03 51.533 131.021 51.7166C131.021 52.8826 129.61 53.4702 126.797 53.4702C125.588 53.5069 124.369 53.3784 123.187 53.0938C122.903 53.0111 122.647 52.8459 122.455 52.6164C122.271 52.396 122.171 52.1298 122.18 51.8452C122.171 51.6432 122.216 51.4504 122.326 51.2759C122.537 51.028 122.784 50.8077 123.05 50.6241C123.352 50.3578 123.554 49.9998 123.618 49.605C123.746 48.9164 123.81 48.2095 123.783 47.5025C123.783 47.2087 123.765 46.6487 123.728 45.8316C123.691 45.0145 123.664 44.5371 123.646 44.3994C123.572 44.0046 123.297 43.6741 122.922 43.5455C122.455 43.3894 122.134 42.9579 122.116 42.4622C122.116 41.8929 122.464 41.4706 123.16 41.186C124.168 40.782 125.203 40.4515 126.266 40.1945C127.099 39.9649 127.961 39.8272 128.822 39.7905C129.298 39.7905 129.536 40.0659 129.536 40.626L129.527 40.6351ZM126.971 34.695C127.594 34.6583 128.217 34.8144 128.758 35.1357C129.17 35.3836 129.427 35.8427 129.417 36.3292C129.417 37.027 129.033 37.6605 128.419 37.9818C127.264 38.652 125.945 38.9826 124.608 38.9458C124.085 38.9734 123.554 38.8448 123.105 38.5694C122.629 38.2848 122.345 37.7707 122.354 37.2106C122.354 36.4302 122.885 35.8243 123.948 35.3836C124.901 34.9613 125.927 34.7226 126.971 34.7042V34.695Z" fill="#192D1E"/>
<path d="M136.6 45.4552L135.501 44.0229C135.18 43.5639 134.804 43.1416 134.392 42.756C134.099 42.5264 133.751 42.3704 133.384 42.2969C132.706 42.1408 132.367 41.8011 132.367 41.2595C132.367 40.7086 132.413 40.424 133.293 40.1577C134.621 39.8364 135.986 39.7079 137.342 39.7538C138.423 39.717 139.504 39.7813 140.576 39.9374C141.291 40.121 141.245 40.4974 141.245 41.0391C141.181 41.4063 141.034 41.7552 140.814 42.0582C140.759 42.1408 140.732 42.2418 140.741 42.3428C140.805 42.7192 140.924 43.0957 141.098 43.4354C141.309 43.8393 141.74 44.4453 141.877 44.4453C142.033 44.4453 142.335 43.8393 142.638 43.3068C142.894 42.8661 143.087 42.5999 143.087 42.4071C143.022 42.1133 142.903 41.8287 142.738 41.5808C142.601 41.4063 142.519 41.2044 142.491 40.984C142.491 40.7729 142.573 40.5709 142.702 40.4056C142.839 40.222 143.022 40.0751 143.242 39.9833C143.874 39.7813 144.543 39.6987 145.203 39.7354C145.771 39.6987 146.339 39.7813 146.87 39.9833C147.264 40.1577 147.521 40.5525 147.521 40.984C147.539 41.1768 147.466 41.3696 147.338 41.5165C147.054 41.7369 146.751 41.9113 146.421 42.0582C146.192 42.1684 145.982 42.3244 145.817 42.5081C145.679 42.6733 145.203 43.3344 144.388 44.4912L143.499 45.905C143.334 46.1254 143.178 46.3549 143.041 46.5936C143.068 46.7038 143.123 46.8048 143.187 46.8966L143.966 48.1268C144.497 49.0358 145.111 49.8896 145.798 50.6884C146.073 50.9362 146.376 51.129 146.715 51.2668C147.099 51.4045 147.347 51.7809 147.319 52.194C147.264 52.8459 147.218 53.1213 146.55 53.259C144.351 53.4794 142.143 53.5528 139.935 53.4977C139.284 53.3968 138.955 52.2216 139.165 51.6248C139.303 51.2484 139.697 50.9638 139.706 50.6057C139.706 50.3946 139.678 50.1834 139.623 49.9722C139.587 49.8345 139.541 49.6968 139.486 49.5591C139.376 49.2928 139.239 49.0358 139.074 48.7971C138.707 48.237 138.442 47.8331 138.268 47.9157C137.745 48.3105 137.315 48.8246 137.031 49.4214C136.738 49.8621 136.545 50.367 136.481 50.8903C136.518 51.129 136.628 51.3402 136.792 51.5146C136.967 51.7166 137.067 51.9737 137.067 52.2491C137.067 53.0387 136.188 53.5345 134.42 53.5345C133.714 53.5804 133.009 53.4794 132.34 53.2407C131.946 53.0846 131.689 52.6898 131.708 52.2675C131.689 52.0104 131.763 51.7534 131.909 51.533C132.129 51.3677 132.386 51.2576 132.651 51.23C132.99 51.1841 133.302 51.0097 133.522 50.7434C133.723 50.4864 134.328 49.5132 135.354 47.8147L136.673 46.0795C136.838 45.9326 136.847 45.6755 136.701 45.5103C136.683 45.4919 136.664 45.4735 136.637 45.4552H136.6Z" fill="#192D1E"/>
<path d="M156.664 40.6351V48.5125C156.646 48.9715 156.701 49.4397 156.829 49.8804C156.966 50.2018 157.195 50.4864 157.479 50.6792C157.681 50.8169 157.864 50.9913 158.02 51.1841C158.121 51.3494 158.167 51.533 158.157 51.7166C158.157 52.8826 156.747 53.4702 153.934 53.4702C152.725 53.5069 151.506 53.3784 150.324 53.0938C150.04 53.0111 149.784 52.8459 149.591 52.6164C149.408 52.396 149.307 52.1298 149.316 51.8452C149.307 51.6432 149.353 51.4504 149.463 51.2759C149.674 51.028 149.921 50.8077 150.187 50.6241C150.489 50.3578 150.691 49.9998 150.755 49.605C150.883 48.9164 150.938 48.2095 150.92 47.5025C150.92 47.2087 150.901 46.6487 150.865 45.8316C150.828 45.0145 150.801 44.5371 150.782 44.3994C150.709 44.0046 150.434 43.6741 150.059 43.5455C149.591 43.3894 149.271 42.9579 149.252 42.4622C149.252 41.8929 149.6 41.4706 150.297 41.186C151.305 40.782 152.34 40.4515 153.403 40.1945C154.236 39.9649 155.097 39.8272 155.959 39.7905C156.435 39.7905 156.673 40.0659 156.673 40.626L156.664 40.6351ZM154.108 34.695C154.731 34.6583 155.354 34.8144 155.895 35.1357C156.307 35.3836 156.563 35.8335 156.554 36.3201C156.554 37.0178 156.169 37.6513 155.556 37.9726C154.401 38.6429 153.082 38.9734 151.744 38.9367C151.222 38.9642 150.691 38.8357 150.242 38.5602C149.765 38.2756 149.481 37.7615 149.491 37.2014C149.491 36.4211 150.022 35.8151 151.075 35.3744C152.028 34.9521 153.054 34.7226 154.099 34.695H154.108Z" fill="#192D1E"/>
</g>
<defs>
<clipPath id="clip0_447_26">
<rect width="199" height="88" fill="white"/>
</clipPath>
</defs>
</svg>
