<svg xmlns="http://www.w3.org/2000/svg" width="347" height="101" viewBox="0 0 347 101">
  <g id="Group_7" data-name="Group 7" transform="translate(-712 -44)">
    <path id="Path_1" data-name="Path 1" d="M9.994,0q7.038,0,7.038,3.046a2.311,2.311,0,0,1-.361,1.346A4.829,4.829,0,0,1,15.295,5.55a2.473,2.473,0,0,0-1.117,1.488,18.517,18.517,0,0,0-.236,3.73q0,1.654.586,2.031a2.051,2.051,0,0,0,1.027.283q.688.049,3.237.048a9.244,9.244,0,0,0,2.887-.259q.565-.261.565-1.3a23.323,23.323,0,0,0-.271-4.345,2.383,2.383,0,0,0-1.06-1.677,4.843,4.843,0,0,1-1.308-1,1.759,1.759,0,0,1-.316-1.1,2.594,2.594,0,0,1,.7-1.758A3.509,3.509,0,0,1,21.814.614,24.625,24.625,0,0,1,27.7.024a17.589,17.589,0,0,1,6.124.791A2.631,2.631,0,0,1,35.8,3.282a2.27,2.27,0,0,1-1.4,2.125,3.014,3.014,0,0,0-1.151.816,3.721,3.721,0,0,0-.429,1.451q-.09.591-.226,5.243t-.135,7.391A32.253,32.253,0,0,0,32.8,26.4a2.258,2.258,0,0,0,.406.945,4.033,4.033,0,0,0,.619.453c2.225,1.431,2.1,3.593-.329,4.591l-.052.021a19.389,19.389,0,0,1-6.622.815,15.912,15.912,0,0,1-5.932-.826,2.476,2.476,0,0,1-1.737-2.338,2.326,2.326,0,0,1,1.332-2.1,2.517,2.517,0,0,0,.89-.755,4.9,4.9,0,0,0,.463-1.393,24.76,24.76,0,0,0,.406-4.865q0-1.487-.418-1.842a4.03,4.03,0,0,0-2.177-.354,16.78,16.78,0,0,0-5.143.472q-.452.19-.564,1.11a24.008,24.008,0,0,0-.135,2.787,7.76,7.76,0,0,0,.721,3.872,4.132,4.132,0,0,0,1.173.968,2,2,0,0,1,.947,1.866q0,1.654-2.188,2.526a17.507,17.507,0,0,1-6.249.874,19.014,19.014,0,0,1-6.045-.8,3.691,3.691,0,0,1-1.59-1A2.108,2.108,0,0,1,0,29.989a1.8,1.8,0,0,1,.361-1.2A6.042,6.042,0,0,1,1.94,27.7a1.972,1.972,0,0,0,.891-.851A5.648,5.648,0,0,0,3.226,25.1a61.868,61.868,0,0,0,.338-7.225q0-.827-.022-1.96-.091-5.669-.09-6.47a6.462,6.462,0,0,0-.328-2.68A4.426,4.426,0,0,0,1.286,5.337,1.589,1.589,0,0,1,.293,3.849q0-2.384,4.421-3.306A25.5,25.5,0,0,1,9.994,0Z" transform="translate(760.185 80.126)" fill="#182d1e"/>
    <path id="Path_2" data-name="Path 2" d="M136.076,39.251l-10.612-.012a1.335,1.335,0,0,0-1.084.849,2.789,2.789,0,0,0,1.121,3.237,6.292,6.292,0,0,0,3.887,1.013,8.76,8.76,0,0,0,4.579-1.511,2.333,2.333,0,0,1,1.219-.568,1.958,1.958,0,0,1,1.545.558,2.577,2.577,0,0,1,.564,1.558,4.326,4.326,0,0,1-2.03,3.282,13.046,13.046,0,0,1-8.279,2.81,11.436,11.436,0,0,1-7.941-2.881,11.741,11.741,0,0,1-2.571-3.424,12.462,12.462,0,0,1-1.315-6.274,12.237,12.237,0,0,1,12.323-11.578,10.872,10.872,0,0,1,7.286,2.55,10.1,10.1,0,0,1,2.436,3.023,8.182,8.182,0,0,1,1.06,3.872,4.7,4.7,0,0,1-.609,2.515A1.812,1.812,0,0,1,136.076,39.251Zm-10.015-3.718h2.278q1.444,0,1.444-1.394a5.252,5.252,0,0,0-.7-2.775,2.445,2.445,0,0,0-3.812.236,5.76,5.76,0,0,0-.677,2.657,1.261,1.261,0,0,0,.327.992A1.76,1.76,0,0,0,126.061,35.533Z" transform="translate(679.84 62.857)" fill="#182d1e"/>
    <path id="Path_3" data-name="Path 3" d="M350.842,160.448l-9.346,5.264a1.414,1.414,0,0,0-.569,1.286,2.653,2.653,0,0,0,2.455,2.292,6.3,6.3,0,0,0,3.88-1.041,8.08,8.08,0,0,0,1.916-1.578,8.17,8.17,0,0,0,1.428-2.027,2.477,2.477,0,0,1,.815-1.105,1.939,1.939,0,0,1,1.613-.276,2.432,2.432,0,0,1,1.2,1.091q.771,1.5-.3,3.9a13.819,13.819,0,0,1-6.012,6.588,11.306,11.306,0,0,1-8.3,1.411,11.027,11.027,0,0,1-3.816-1.735,11.858,11.858,0,0,1-4-4.868,12.247,12.247,0,0,1-.939-6.758,12.968,12.968,0,0,1,6.533-9.556,10.762,10.762,0,0,1,7.568-1.377,9.506,9.506,0,0,1,3.515,1.45,7.752,7.752,0,0,1,2.69,2.881,4.7,4.7,0,0,1,.605,2.516A1.922,1.922,0,0,1,350.842,160.448Zm-10.5,1.705,2-1.132a1.31,1.31,0,0,0,.639-1.945,4.979,4.979,0,0,0-1.874-2.094,2.265,2.265,0,0,0-1.973.2,2.43,2.43,0,0,0-1.276,1.9,5.768,5.768,0,0,0,.61,2.675,1.192,1.192,0,0,0,.738.71A1.759,1.759,0,0,0,340.341,162.153Z" transform="translate(656.834 -63.268)" fill="#182d1e"/>
    <path id="Path_4" data-name="Path 4" d="M211.009,14.94v7.58q0,5.031.147,5.857a1.754,1.754,0,0,0,1.117,1.274,3.357,3.357,0,0,1,1.117.708,1.422,1.422,0,0,1,.282.945,2.166,2.166,0,0,1-.531,1.418,2.82,2.82,0,0,1-1.409.9,14.884,14.884,0,0,1-4.857.555,18.842,18.842,0,0,1-6.113-.686,3.038,3.038,0,0,1-1.331-.956,2.147,2.147,0,0,1-.519-1.358,1.243,1.243,0,0,1,.282-.873,4.114,4.114,0,0,1,1.229-.733q.88-.4,1.083-2.2a80.081,80.081,0,0,0,.361-8.737,51.91,51.91,0,0,0-.316-7.415c-.21-1.1-.5-2.154-1.579-2.455a2.361,2.361,0,0,1-1.3-1.075,2.132,2.132,0,0,1-.349-1.24,2.546,2.546,0,0,1,1.06-2.019,10.543,10.543,0,0,1,3.384-1.594,33.15,33.15,0,0,1,4.038-.944,22.865,22.865,0,0,1,3.609-.449c1.188,0,1.158.735,1.158,2.278q0,.755-.226,3.472Q211.054,11.421,211.009,14.94Z" transform="translate(619.965 79.178)" fill="#182d1e"/>
    <path id="Path_5" data-name="Path 5" d="M268.132,14.94v7.58q0,5.031.147,5.857a1.754,1.754,0,0,0,1.117,1.274,3.359,3.359,0,0,1,1.117.708,1.422,1.422,0,0,1,.282.945,2.166,2.166,0,0,1-.531,1.418,2.819,2.819,0,0,1-1.41.9,14.88,14.88,0,0,1-4.857.555,18.842,18.842,0,0,1-6.113-.686,3.036,3.036,0,0,1-1.331-.956,2.147,2.147,0,0,1-.519-1.358,1.243,1.243,0,0,1,.282-.873,4.114,4.114,0,0,1,1.229-.733q.879-.4,1.083-2.2a80.085,80.085,0,0,0,.361-8.737,51.91,51.91,0,0,0-.316-7.415c-.21-1.1-.5-2.154-1.579-2.455a2.363,2.363,0,0,1-1.3-1.075,2.135,2.135,0,0,1-.349-1.24,2.546,2.546,0,0,1,1.06-2.019,10.536,10.536,0,0,1,3.384-1.594,33.148,33.148,0,0,1,4.038-.944,22.861,22.861,0,0,1,3.609-.449c1.188,0,1.158.735,1.158,2.278q0,.755-.225,3.472Q268.176,11.421,268.132,14.94Z" transform="translate(580.596 79.178)" fill="#182d1e"/>
    <path id="Path_6" data-name="Path 6" d="M329.538,26.875a12.276,12.276,0,0,1,6.7,3.645,12.459,12.459,0,0,1,3.112,10.613,10.575,10.575,0,0,1-5.991,7.66A15.113,15.113,0,0,1,323.1,50.2a12.3,12.3,0,0,1-7.987-4.892,10.9,10.9,0,0,1-1.712-8.622,11.416,11.416,0,0,1,5.555-8.157A14.367,14.367,0,0,1,329.538,26.875Zm-2.482,5.164a1.886,1.886,0,0,0-1.7.436,3.177,3.177,0,0,0-.958,1.886,20.209,20.209,0,0,0-.2,3.892,30.481,30.481,0,0,0,.4,4.494q.334,2.04,1.885,2.354,1.971.4,2.456-2.219a23.18,23.18,0,0,0,.322-4.528,19.411,19.411,0,0,0-.46-4.279A2.458,2.458,0,0,0,327.056,32.039Z" transform="translate(538.821 62.715)" fill="#182d1e"/>
    <path id="Path_7" data-name="Path 7" d="M15.082,159.635H13.458c-.948,0-4.418-.06-4.7-.06a3.8,3.8,0,0,1-2.391-.913,2.305,2.305,0,0,1-.947-1.912,1.85,1.85,0,0,1,.417-1.288,2.967,2.967,0,0,1,1.365-.743,1.894,1.894,0,0,0,1.218-.767,5.937,5.937,0,0,0,.5-2.067q.18-1.772.327-6.895t.147-10.178a7.685,7.685,0,0,0-.293-2.645,2.245,2.245,0,0,0-1.375-1.062A2.15,2.15,0,0,1,6.161,129,2.015,2.015,0,0,1,7.232,127.2a5.775,5.775,0,0,1,2.989-.65q.631,0,1.488.024,1.9.071,2.753.071,3.225,0,7.286-.213.857-.047,2.143-.047a22.085,22.085,0,0,1,8.165,1.228,12.919,12.919,0,0,1,6.723,6.187,19.373,19.373,0,0,1,2.007,9.114,19.9,19.9,0,0,1-.745,5.349,16.807,16.807,0,0,1-2.007,4.64,13.88,13.88,0,0,1-7.219,5.573,23.279,23.279,0,0,1-8.516,1.146S16.465,159.635,15.082,159.635ZM19.9,133.561v18.276a2.978,2.978,0,0,0,.61,2.114,2.753,2.753,0,0,0,2.03.625,5.358,5.358,0,0,0,2.543-.651c2.587-1.452,3.34-4.868,3.682-6.419a17.432,17.432,0,0,0,.363-3.414,18.549,18.549,0,0,0-1.534-8.973,5.878,5.878,0,0,0-5.73-3.518,2.091,2.091,0,0,0-1.523.449A2.114,2.114,0,0,0,19.9,133.561Z" transform="translate(881.367 -46.613)" fill="#182d1e"/>
    <path id="Path_8" data-name="Path 8" d="M135.484,138.5v13.719a7.363,7.363,0,0,0,.282,2.385A3.152,3.152,0,0,0,136.905,156a3.983,3.983,0,0,1,.936.885,1.693,1.693,0,0,1,.236.933q0,3.047-7.376,3.046a23.9,23.9,0,0,1-6.294-.66,2.544,2.544,0,0,1-1.275-.827,2.058,2.058,0,0,1-.485-1.345,1.707,1.707,0,0,1,.249-.992,6.885,6.885,0,0,1,1.263-1.133,3.055,3.055,0,0,0,.993-1.771,16.946,16.946,0,0,0,.293-3.66q0-.778-.1-2.916t-.147-2.491a1.941,1.941,0,0,0-1.264-1.488,2.033,2.033,0,0,1-1.4-1.89q0-1.488,1.828-2.219a40.135,40.135,0,0,1,5.414-1.724,20.238,20.238,0,0,1,4.466-.708Q135.484,137.041,135.484,138.5Zm-4.467-10.342a5.545,5.545,0,0,1,3.112.767A2.373,2.373,0,0,1,135.281,131a3.245,3.245,0,0,1-1.737,2.881,12.556,12.556,0,0,1-6.655,1.677,4.578,4.578,0,0,1-2.617-.662,2.671,2.671,0,0,1-1.309-2.362q0-2.03,2.775-3.188A13.727,13.727,0,0,1,131.017,128.162Z" transform="translate(801.697 -47.782)" fill="#182d1e"/>
    <path id="Path_9" data-name="Path 9" d="M188.11,163.647l-1.918-2.5a13.913,13.913,0,0,0-1.94-2.2,4.2,4.2,0,0,0-1.759-.8q-1.783-.4-1.782-1.8c0-.96.082-1.46,1.608-1.925a26.337,26.337,0,0,1,7.073-.7,31.263,31.263,0,0,1,5.646.317c1.248.315,1.173.979,1.173,1.924a4.184,4.184,0,0,1-.745,1.771.85.85,0,0,0-.135.5,6.3,6.3,0,0,0,.626,1.9c.372.7,1.113,1.763,1.354,1.763.271,0,.792-1.061,1.331-1.984.445-.761.79-1.224.79-1.571a3.878,3.878,0,0,0-.611-1.434,2.144,2.144,0,0,1-.428-1.038,1.669,1.669,0,0,1,.372-1.015,2.219,2.219,0,0,1,.936-.732,9.755,9.755,0,0,1,3.429-.425,6.913,6.913,0,0,1,2.91.425,1.911,1.911,0,0,1,1.128,1.748,1.227,1.227,0,0,1-.316.92,7.712,7.712,0,0,1-1.6.944,3.251,3.251,0,0,0-1.06.791q-.362.438-2.5,3.46l-1.556,2.455a12.614,12.614,0,0,0-.8,1.192,1.791,1.791,0,0,0,.248.52l1.353,2.148a30.033,30.033,0,0,0,3.2,4.463,5.8,5.8,0,0,0,1.6,1.015,1.574,1.574,0,0,1,1.048,1.607c-.09,1.13-.177,1.616-1.349,1.858a91.51,91.51,0,0,1-11.541.412c-1.143-.17-1.713-2.223-1.342-3.26.233-.652.93-1.154.937-1.771a4.382,4.382,0,0,0-.148-1.1h0a5.685,5.685,0,0,0-.244-.716,7.609,7.609,0,0,0-.721-1.323c-.635-.969-1.1-1.686-1.4-1.533a7.29,7.29,0,0,0-2.161,2.619,5.838,5.838,0,0,0-.956,2.561,2.015,2.015,0,0,0,.541,1.086,1.94,1.94,0,0,1,.474,1.276c0,1.37-1.542,2.232-4.624,2.232a9.194,9.194,0,0,1-3.632-.519,1.757,1.757,0,0,1-1.105-1.7,1.994,1.994,0,0,1,.35-1.276,2.646,2.646,0,0,1,1.3-.531,2.409,2.409,0,0,0,1.511-.851q.519-.66,3.2-5.1l2.306-3.022a.7.7,0,0,0-.067-1.086Z" transform="translate(761.425 -64.547)" fill="#182d1e"/>
    <path id="Path_10" data-name="Path 10" d="M288.921,138.5v13.719a7.361,7.361,0,0,0,.282,2.385A3.162,3.162,0,0,0,290.342,156a3.963,3.963,0,0,1,.936.885,1.687,1.687,0,0,1,.237.933q0,3.047-7.376,3.046a23.9,23.9,0,0,1-6.294-.66,2.546,2.546,0,0,1-1.275-.827,2.058,2.058,0,0,1-.485-1.345,1.71,1.71,0,0,1,.248-.992,6.941,6.941,0,0,1,1.264-1.133,3.055,3.055,0,0,0,.993-1.771,17.022,17.022,0,0,0,.292-3.66q0-.778-.1-2.916t-.147-2.491a1.941,1.941,0,0,0-1.263-1.488,2.033,2.033,0,0,1-1.4-1.89q0-1.488,1.828-2.219a40.123,40.123,0,0,1,5.414-1.724,20.241,20.241,0,0,1,4.467-.708Q288.921,137.041,288.921,138.5Zm-4.467-10.342a5.548,5.548,0,0,1,3.113.767,2.371,2.371,0,0,1,1.15,2.067,3.243,3.243,0,0,1-1.737,2.881,12.554,12.554,0,0,1-6.654,1.677,4.574,4.574,0,0,1-2.617-.662,2.671,2.671,0,0,1-1.308-2.362q0-2.03,2.774-3.188A13.728,13.728,0,0,1,284.454,128.162Z" transform="translate(695.63 -47.782)" fill="#182d1e"/>
    <g id="Ellipse_17" data-name="Ellipse 17" transform="translate(712 44)" fill="none" stroke="#182d1e" stroke-width="4">
      <ellipse cx="173.5" cy="50.5" rx="173.5" ry="50.5" stroke="none"/>
      <ellipse cx="173.5" cy="50.5" rx="171.5" ry="48.5" fill="none"/>
    </g>
  </g>
</svg>
