<svg width="152" height="152" viewBox="0 0 152 152" fill="none" xmlns="http://www.w3.org/2000/svg">
<circle cx="76" cy="76" r="76" fill="#D9D9D9"/>
<g clip-path="url(#clip0_724_2)">
<path d="M76.5338 8.80469C113.365 8.82649 143.208 38.702 143.186 75.5335C143.165 112.365 113.289 142.208 76.4575 142.186C39.6412 142.164 9.80493 112.313 9.80493 75.4943C9.81583 38.6518 39.6913 8.79379 76.5338 8.80469Z" fill="#3F61AC"/>
<path d="M76.5338 7C114.366 7.01962 145.017 37.7017 145 75.5338C144.98 113.366 114.298 144.017 76.4662 144C38.6472 143.98 8 113.318 8 75.4989C8.05014 37.6755 38.7104 7.0327 76.5338 7ZM76.5338 140.381C112.369 140.357 141.401 111.286 141.377 75.451C141.353 39.6156 112.282 10.5838 76.4466 10.6077C40.6287 10.6317 11.6056 39.6723 11.6034 75.4902C11.6535 111.323 40.7006 140.353 76.5338 140.381Z" fill="#1A1818"/>
<path d="M104.855 79.0608C113.309 79.0608 120.162 72.2075 120.162 63.7535C120.162 55.2996 113.309 48.4463 104.855 48.4463C96.401 48.4463 89.5477 55.2996 89.5477 63.7535C89.5477 72.2075 96.401 79.0608 104.855 79.0608Z" fill="#1A1818"/>
<path d="M76.7997 110.043H76.0193C64.9018 109.78 54.3162 105.239 46.4621 97.365C45.7231 96.493 45.8321 95.1873 46.704 94.4483C47.4866 93.7856 48.6354 93.7965 49.4049 94.4701C56.5332 101.524 66.0703 105.616 76.0956 105.917C86.3716 105.98 96.2706 102.056 103.713 94.9715C104.532 94.1714 105.845 94.1889 106.643 95.0085C107.443 95.8282 107.425 97.1405 106.605 97.9383C98.5529 105.588 87.9041 109.912 76.7975 110.041L76.7997 110.043Z" fill="#1A1818"/>
<path d="M91.865 65.0742H48.3956V67.9299H91.865V65.0742Z" fill="#1A1818"/>
<path d="M41.4789 75.0695C46.2103 75.0695 50.0459 71.234 50.0459 66.5025C50.0459 61.7711 46.2103 57.9355 41.4789 57.9355C36.7474 57.9355 32.9119 61.7711 32.9119 66.5025C32.9119 71.234 36.7474 75.0695 41.4789 75.0695Z" fill="#1A1818"/>
</g>
<defs>
<clipPath id="clip0_724_2">
<rect width="137" height="137" fill="white" transform="translate(8 7)"/>
</clipPath>
</defs>
</svg>
