<svg xmlns="http://www.w3.org/2000/svg" width="51.946" height="47.887" viewBox="0 0 51.946 47.887">
  <path id="single-quote-2" d="M20.739,9.326,13.184,24.918h2.733c4.461,0,6.992,2.25,6.992,6.229v8.68c0,4.179-2.532,6.59-7.394,6.59H8.924c-4.862,0-7.394-2.411-7.394-6.59V29.62c0-4.5,1.165-7.635,3.5-12.3L10.853,5.187c1.165-2.612,2.893-3.657,5.224-3.657,4.26,0,6.791,3.3,4.662,7.8Zm27.567,0L40.751,24.918h2.733c4.461,0,6.992,2.25,6.992,6.229v8.68c0,4.179-2.532,6.59-7.394,6.59h-6.59c-5.063,0-7.394-2.411-7.394-6.59V29.62c0-4.5,1.165-7.635,3.5-12.3L38.42,5.187c1.165-2.612,2.893-3.657,5.224-3.657,4.059,0,6.791,3.3,4.662,7.8Z" transform="translate(-0.03 -0.03)" fill="#CBD2CE" stroke="#231f20" stroke-miterlimit="10" stroke-width="3"/>
</svg>
