<svg width="291" height="291" viewBox="0 0 291 291" fill="none" xmlns="http://www.w3.org/2000/svg">
<path d="M288.056 144.936C288.073 151.079 276.209 156.381 275.444 162.309C274.66 168.371 284.737 176.547 283.191 182.337C281.645 188.126 268.772 190.254 266.464 195.81C264.157 201.366 271.699 211.967 268.669 217.174C265.639 222.382 252.694 220.998 248.999 225.782C245.304 230.565 249.84 242.73 245.538 246.975C241.236 251.22 229.133 246.503 224.301 250.154C219.469 253.804 220.719 266.729 215.433 269.708C210.148 272.687 199.743 264.968 194.1 267.22C188.457 269.472 186.33 282.26 180.425 283.766C174.52 285.272 166.574 275.05 160.502 275.754C154.43 276.458 149.106 288.232 142.963 288.134C136.82 288.036 131.996 276.118 126.201 275.278C120.292 274.419 112.098 284.4 106.462 282.798C100.825 281.196 99.0021 268.363 93.599 266.037C88.196 263.712 77.6525 271.235 72.5783 268.225C67.5042 265.215 69.0777 252.366 64.4274 248.73C59.7772 245.093 47.7076 249.706 43.5381 245.5C39.3686 241.294 44.18 229.287 40.5863 224.57C36.9926 219.852 24.1618 221.294 21.2005 216.161C18.2391 211.028 25.9396 200.662 23.6675 195.171C21.3953 189.68 8.62453 187.84 7.07916 182.087C5.53379 176.334 15.6605 168.369 14.8603 162.449C14.0601 156.529 2.2262 151.509 2.22782 145.518C2.22943 139.527 14.0756 134.073 14.84 128.145C15.6044 122.216 5.54759 113.907 7.09329 108.117C8.63898 102.327 21.5124 100.2 23.8198 94.6439C26.1271 89.0881 18.5849 78.4873 21.6149 73.2797C24.6449 68.0721 37.5904 69.4555 41.2854 64.6721C44.9803 59.8886 40.4439 47.7242 44.7459 43.479C49.0478 39.2339 61.1508 43.9504 65.983 40.3002C70.7959 36.669 69.5654 23.7252 74.851 20.7458C80.1367 17.7663 90.5408 25.4862 96.1841 23.2341C101.827 20.9821 103.954 8.19411 109.859 6.68791C115.765 5.1817 123.71 15.4036 129.782 14.6999C135.854 13.9961 141.179 2.22145 147.322 2.31947C153.464 2.4175 158.289 14.3358 164.083 15.1756C169.878 16.0154 178.186 6.05403 183.823 7.65595C189.459 9.25786 191.282 22.0912 196.685 24.4165C202.088 26.7419 212.632 19.2184 217.706 22.2284C222.78 25.2385 221.207 38.0874 225.857 41.7242C230.507 45.361 242.577 40.7477 246.746 44.9537C250.916 49.1597 246.104 61.1667 249.698 65.884C253.292 70.6014 266.122 69.1602 269.084 74.2931C272.045 79.426 264.345 89.7921 266.617 95.2829C268.889 100.774 281.66 102.614 283.205 108.367C284.75 114.12 274.624 122.085 275.424 128.005C276.224 133.925 288.058 138.945 288.056 144.936Z" fill="#608964" stroke="#231F20" stroke-width="0.5" stroke-miterlimit="10"/>
<path d="M142.992 289.452L142.935 289.451C139.234 289.388 136.147 285.876 133.175 282.48C130.77 279.735 128.289 276.914 126.002 276.575C123.638 276.235 120.381 278.255 117.239 280.237C113.465 282.597 109.557 285.051 106.091 284.074C102.549 283.078 100.497 278.905 98.501 274.866C96.882 271.593 95.2065 268.185 93.0568 267.255C90.869 266.306 87.2173 267.446 83.6995 268.529C79.4361 269.855 75.0198 271.218 71.884 269.366C68.7484 267.495 67.8246 262.948 66.938 258.554C66.2177 254.962 65.4602 251.236 63.6002 249.774C61.7401 248.312 57.9232 248.477 54.259 248.625C49.7932 248.824 45.1556 249.022 42.5972 246.429C40.0387 243.837 40.2983 239.221 40.557 234.739C40.7722 231.058 40.9882 227.263 39.5507 225.384C38.1131 223.505 34.398 222.698 30.8163 221.93C26.4343 220.985 21.9 220.001 20.0703 216.841C18.2596 213.7 19.6816 209.302 21.0645 205.037C22.1944 201.534 23.3823 197.898 22.4621 195.698C21.5606 193.536 18.195 191.815 14.9435 190.153C10.9314 188.104 6.78616 185.997 5.83673 182.442C4.90587 178.963 7.39281 175.088 9.82163 171.345C11.8265 168.229 13.9084 165.019 13.5999 162.632C13.2908 160.34 10.5029 157.822 7.79075 155.381C4.43378 152.364 0.963094 149.231 0.94951 145.529C0.936433 141.752 4.41114 138.531 7.77062 135.425C10.4774 132.924 13.2611 130.329 13.582 127.965C13.9036 125.506 11.8268 122.211 9.82541 119.049C7.40859 115.236 4.9353 111.309 5.87462 107.766C6.8526 104.148 11.0264 101.962 15.0661 99.8522C18.34 98.1377 21.7288 96.3668 22.6593 94.1407C23.6092 91.8766 22.47 88.1677 21.368 84.6116C20.0421 80.2909 18.679 75.8174 20.5318 72.6244C22.4038 69.4124 26.9895 68.3935 31.4415 67.4119C35.0718 66.6156 38.8169 65.7819 40.3178 63.8648C41.8188 61.9287 41.6916 58.093 41.5638 54.3526C41.4031 49.8298 41.2625 45.1354 43.8936 42.539C46.5439 39.9237 51.2168 40.1455 55.7371 40.3663C59.4564 40.5436 63.3092 40.7218 65.265 39.2467C67.2017 37.7904 68.0852 34.0377 68.9296 30.4183C69.9701 25.9988 71.0308 21.4269 74.2865 19.5787C77.5039 17.7494 81.9589 19.1908 86.2616 20.574C89.8218 21.7233 93.4963 22.8925 95.7727 21.9918C98.0109 21.0909 99.8267 17.7259 101.584 14.475C103.748 10.4637 105.989 6.31932 109.62 5.38947C113.194 4.47832 117.088 7.02262 120.849 9.48973C124.003 11.5331 127.251 13.6533 129.715 13.3644C132.082 13.0939 134.695 10.3257 137.251 7.65255C140.382 4.35357 143.629 0.940877 147.388 0.965831L147.445 0.966211C151.146 1.02894 154.233 4.54092 157.205 7.93766C159.61 10.6819 162.091 13.5031 164.378 13.8426C166.761 14.1827 169.999 12.1628 173.141 10.1803C176.915 7.82049 180.823 5.36615 184.289 6.34312C187.831 7.33967 189.883 11.5126 191.879 15.5515C193.498 18.8248 195.173 22.232 197.323 23.1621C199.511 24.0924 203.163 22.9719 206.68 21.8887C210.944 20.5623 215.36 19.1989 218.496 21.0513C221.632 22.9228 222.555 27.4698 223.442 31.8639C224.162 35.4746 224.92 39.181 226.78 40.6433C228.64 42.1057 232.457 41.9403 236.121 41.7929C240.606 41.5937 245.224 41.3954 247.783 43.9881C250.341 46.5808 250.082 51.1962 249.823 55.6781C249.608 59.3589 249.411 63.1544 250.848 65.0337C252.286 66.913 256.001 67.7199 259.583 68.4877C263.965 69.4326 268.499 70.4167 270.329 73.5769C272.139 76.7179 270.717 81.1157 269.335 85.3803C268.205 88.8834 267.017 92.5196 267.937 94.7198C268.838 96.8817 272.204 98.6021 275.475 100.265C279.487 102.314 283.632 104.421 284.581 107.976C285.512 111.454 283.025 115.33 280.597 119.073C278.592 122.188 276.51 125.399 276.818 127.786C277.127 130.077 279.915 132.595 282.627 135.036C285.984 138.054 289.455 141.187 289.469 144.888C289.482 148.666 286.007 151.886 282.648 154.993C279.941 157.494 277.157 160.089 276.836 162.453C276.514 164.912 278.591 168.207 280.593 171.368C283.01 175.181 285.483 179.109 284.543 182.651C283.566 186.27 279.392 188.455 275.352 190.565C272.078 192.28 268.689 194.051 267.759 196.277C266.809 198.541 267.948 202.25 269.05 205.806C270.376 210.127 271.739 214.6 269.886 217.793C268.014 221.005 263.429 222.024 258.977 223.006C255.346 223.802 251.601 224.636 250.1 226.553C248.599 228.489 248.726 232.325 248.854 236.065C249.015 240.588 249.156 245.282 246.525 247.879C243.874 250.494 239.201 250.272 234.681 250.051C230.962 249.874 227.109 249.696 225.153 251.171C223.216 252.627 222.333 256.38 221.489 259.999C220.448 264.419 219.387 268.991 216.132 270.839C212.914 272.668 208.459 271.227 204.157 269.844C200.596 268.694 196.922 267.506 194.645 268.426C192.407 269.327 190.591 272.692 188.834 275.943C186.67 279.954 184.429 284.098 180.798 285.028C177.243 285.939 173.349 283.395 169.569 280.928C166.415 278.885 163.186 276.784 160.704 277.053C158.336 277.324 155.723 280.092 153.168 282.765C150.036 286.064 146.789 289.477 143.03 289.452L142.992 289.452ZM125.505 273.862C125.81 273.864 126.096 273.885 126.401 273.925C129.66 274.405 132.482 277.61 135.19 280.719C137.784 283.674 140.473 286.745 142.991 286.78L143.029 286.781C145.643 286.798 148.467 283.821 151.215 280.921C154.078 277.906 157.036 274.797 160.359 274.399C163.796 273.983 167.443 276.392 170.996 278.686C174.282 280.826 177.702 283.042 180.11 282.429C182.613 281.797 184.564 278.166 186.457 274.668C188.447 270.999 190.494 267.196 193.613 265.939C196.788 264.662 200.939 265.987 204.937 267.292C208.687 268.5 212.571 269.747 214.773 268.502C216.995 267.239 217.937 263.238 218.841 259.39C219.803 255.314 220.785 251.085 223.488 249.042C226.211 246.981 230.541 247.2 234.737 247.381C238.685 247.559 242.767 247.758 244.591 245.977C246.415 244.196 246.271 240.093 246.125 236.142C245.982 231.944 245.839 227.612 247.936 224.917C250.015 222.24 254.256 221.315 258.345 220.407C262.224 219.555 266.236 218.666 267.51 216.461C268.784 214.275 267.589 210.375 266.431 206.609C265.199 202.575 263.91 198.426 265.228 195.268C266.527 192.148 270.356 190.151 274.051 188.229C277.574 186.383 281.231 184.48 281.896 181.985C282.542 179.566 280.37 176.137 278.275 172.822C276.009 169.258 273.686 165.561 274.129 162.129C274.552 158.812 277.719 155.895 280.771 153.073C283.709 150.364 286.742 147.541 286.74 144.927C286.738 142.409 283.703 139.68 280.782 137.046C277.71 134.298 274.543 131.434 274.106 128.168C273.671 124.808 276.004 121.179 278.278 117.664C280.379 114.416 282.558 111.053 281.925 108.702C281.273 106.294 277.66 104.457 274.18 102.679C270.491 100.804 266.669 98.8516 265.392 95.7904C264.097 92.6719 265.44 88.5788 266.707 84.5997C267.895 80.9062 269.142 77.0796 267.916 74.9537C266.69 72.8087 262.727 71.9619 258.917 71.1353C254.859 70.2498 250.648 69.3442 248.624 66.6979C246.581 64.0323 246.839 59.7221 247.057 55.5643C247.274 51.6736 247.51 47.6495 245.767 45.9017C244.023 44.1539 240.015 44.3181 236.122 44.483C231.962 44.6653 227.649 44.8465 225.01 42.7685C222.372 40.7095 221.522 36.4873 220.71 32.4181C219.934 28.5971 219.14 24.6234 217.012 23.3691C214.902 22.115 211.059 23.3105 207.35 24.4497C203.355 25.6824 199.244 26.9525 196.143 25.6154C193.099 24.2979 191.198 20.4694 189.372 16.7368C187.64 13.2148 185.851 9.57787 183.452 8.91325C181.11 8.249 177.718 10.3824 174.442 12.4403C170.898 14.6681 167.238 16.9715 163.884 16.4722C160.624 15.9927 157.803 12.7877 155.095 9.67894C152.501 6.72352 149.812 3.65301 147.294 3.61721L147.256 3.61696C144.661 3.59973 141.818 6.57628 139.07 9.47714C136.207 12.4917 133.248 15.6011 129.926 15.9987C126.508 16.4149 122.842 14.0056 119.289 11.7116C116.003 9.57202 112.583 7.35522 110.175 7.96884C107.672 8.60091 105.72 12.2321 103.827 15.7301C101.838 19.3991 99.7903 23.2014 96.6721 24.459C93.4965 25.7353 89.346 24.4103 85.3481 23.1055C81.5975 21.8977 77.7136 20.6508 75.5112 21.8954C73.2897 23.159 72.3473 27.1593 71.4441 31.0073C70.4822 35.0839 69.5002 39.3129 66.7964 41.3555C64.0735 43.4171 59.744 43.1975 55.5478 43.0171C51.5996 42.8382 47.518 42.6394 45.6936 44.4207C43.8693 46.2021 44.0138 50.305 44.1592 54.2554C44.3031 58.4537 44.446 62.7857 42.3485 65.481C40.2702 68.1573 36.0285 69.0831 31.9395 69.9909C28.0608 70.8428 24.0483 71.7319 22.7744 73.9366C21.5007 76.1223 22.6958 80.0224 23.8537 83.7886C25.0862 87.8225 26.3751 91.9713 25.0567 95.1296C23.7577 98.25 19.9286 100.247 16.2336 102.169C12.7108 104.015 9.05403 105.918 8.38878 108.413C7.74311 110.831 9.91444 114.261 12.0102 117.576C14.2761 121.139 16.6173 124.837 16.1557 128.268C15.733 131.585 12.5656 134.502 9.51328 137.325C6.57619 140.034 3.54294 142.856 3.54467 145.47C3.54702 147.989 6.58157 150.718 9.50227 153.351C12.5748 156.1 15.742 158.964 16.1783 162.229C16.6139 165.59 14.2812 169.219 12.0065 172.733C9.90532 175.982 7.72705 179.344 8.36013 181.695C9.01191 184.104 12.6248 185.94 16.1044 187.719C19.7933 189.594 23.6153 191.546 24.8923 194.607C26.1881 197.726 24.8445 201.819 23.5779 205.798C22.3896 209.491 21.1431 213.318 22.3691 215.444C23.595 217.589 27.5579 218.436 31.3682 219.262C35.4262 220.148 39.6367 221.053 41.6606 223.7C43.7034 226.365 43.4458 230.676 43.2274 234.833C43.0108 238.724 42.7742 242.748 44.5179 244.496C46.2425 246.244 50.2693 246.08 54.1625 245.915C58.323 245.732 62.6361 245.551 65.2743 247.629C67.9126 249.688 68.7622 253.91 69.5747 257.98C70.3507 261.801 71.1447 265.774 73.2732 267.029C75.3827 268.283 79.2255 267.087 82.9344 265.948C86.9111 264.715 91.0406 263.445 94.1416 264.782C97.1855 266.1 99.0871 269.928 100.913 273.661C102.645 277.183 104.433 280.82 106.833 281.484C109.175 282.149 112.566 280.015 115.843 277.957C119.08 275.918 122.414 273.842 125.524 273.862L125.505 273.862Z" fill="#231F20" stroke="#231F20" stroke-width="0.25" stroke-miterlimit="10"/>
<path d="M144.041 214.878C182.847 215.136 214.515 183.886 214.773 145.079C215.03 106.273 183.78 74.605 144.974 74.3474C106.167 74.0897 74.4993 105.34 74.2417 144.146C73.984 182.953 105.234 214.621 144.041 214.878Z" fill="#1A2D1E"/>
<path d="M144.032 216.232C104.54 215.97 72.6441 183.629 72.9062 144.156C73.1682 104.683 105.509 72.768 144.982 73.0301C184.455 73.2921 216.37 105.633 216.108 145.106C215.846 184.579 183.505 216.494 144.032 216.232ZM144.965 75.6819C106.942 75.4295 75.8105 106.15 75.558 144.173C75.3056 182.196 106.026 213.327 144.049 213.58C182.072 213.832 213.204 183.112 213.456 145.089C213.708 107.066 182.988 75.9344 144.965 75.6819Z" fill="#231F20"/>
<path d="M191.803 64.3355C192.653 65.6194 192.74 66.9174 192.064 68.2294L191.948 68.4575L187.574 66.2344L187.613 66.1583C187.806 65.7971 187.789 65.4154 187.62 65.0136C187.451 64.6119 187.015 64.2655 186.387 63.937C185.76 63.6276 185.265 63.4526 184.864 63.4309C184.464 63.4282 184.215 63.5219 184.099 63.7692C183.944 64.0544 184.019 64.3792 184.302 64.7436C184.586 65.108 185.06 65.5309 185.706 66.0121L187.528 67.417C190.072 69.38 190.86 71.3313 189.893 73.2328C189.101 74.792 187.893 75.6235 186.29 75.7273C184.687 75.8311 182.801 75.3225 180.634 74.2206C179.436 73.6022 178.41 72.8894 177.557 72.0824C176.704 71.2564 176.137 70.394 175.838 69.4381C175.539 68.4822 175.641 67.567 176.105 66.6543L176.221 66.4261C176.279 66.3311 176.317 66.2551 176.356 66.2172L180.767 68.4787C180.767 68.4787 180.69 68.5736 180.632 68.6877C180.439 69.0871 180.436 69.4877 180.624 69.9087C180.812 70.3297 181.305 70.7336 182.047 71.1201C182.884 71.5454 183.493 71.7593 183.855 71.7808C184.237 71.7834 184.485 71.6705 184.621 71.4234C184.775 71.1192 184.682 70.7751 184.341 70.4104C184 70.0265 183.412 69.5265 182.596 68.9106C181.552 68.1214 180.698 67.4098 180.072 66.7761C179.428 66.1422 178.975 65.3951 178.694 64.5537C178.414 63.7124 178.534 62.7974 179.037 61.8086C179.482 60.9148 180.172 60.328 181.071 60.0096C181.97 59.6912 183.001 59.6217 184.163 59.8202C185.326 60.0188 186.525 60.4274 187.761 61.0652C189.605 62.0123 190.953 63.1279 191.803 64.3927L191.803 64.3355Z" fill="#231F20"/>
<path d="M206.667 78.4953L203.194 75.7249L196.268 84.379L192.112 81.0698L199.038 72.4157L195.565 69.6452L197.758 66.8933L208.841 75.7624L206.648 78.4952L206.667 78.4953Z" fill="#231F20"/>
<path d="M211.781 101.425L208.242 97.128L209.574 94.6757L206.035 90.3784L203.377 91.2384L200.103 87.2482L215.093 82.5016L219.313 87.662L211.743 101.444L211.781 101.425ZM213.608 87.7195L209.228 89.3694L211.196 91.7864L213.684 87.8345L213.608 87.7386L213.608 87.7195Z" fill="#231F20"/>
<path d="M221.559 108.664L216.581 111.169L214.171 106.402L219.148 103.897L224.571 94.6418L227.282 100.021L224.2 104.522L224.256 104.637L229.731 104.864L232.197 109.765L221.539 108.664L221.559 108.664Z" fill="#231F20"/>
<path d="M234.11 129.086L233.666 127.061L225.545 128.877L225.99 130.902L222.914 131.587L220.819 122.263L223.896 121.577L224.34 123.603L232.461 121.787L232.016 119.762L235.074 119.076L237.168 128.4L234.11 129.086Z" fill="#231F20"/>
<path d="M223.982 148.823L223.822 144.224L229.963 138.75L230.117 138.675L223.647 138.899L223.47 133.976L238.05 133.462L238.211 137.947L231.935 143.533L231.782 143.59L238.404 143.366L238.581 148.309L224.001 148.804L223.982 148.823Z" fill="#231F20"/>
<path d="M234.951 166.257C233.97 167.434 232.746 167.883 231.298 167.626L231.05 167.586L231.941 162.765L232.017 162.765C232.417 162.863 232.78 162.751 233.107 162.448C233.433 162.145 233.646 161.651 233.784 160.946C233.904 160.259 233.926 159.725 233.833 159.343C233.74 158.961 233.551 158.75 233.284 158.691C232.96 158.631 232.673 158.782 232.404 159.162C232.134 159.542 231.863 160.112 231.572 160.874L230.737 163.024C229.572 166.031 227.942 167.336 225.827 166.941C224.112 166.624 222.973 165.72 222.411 164.209C221.848 162.698 221.804 160.751 222.24 158.369C222.477 157.055 222.886 155.855 223.427 154.81C223.968 153.764 224.641 152.967 225.465 152.4C226.29 151.852 227.207 151.668 228.216 151.865L228.464 151.905C228.579 151.925 228.655 151.944 228.712 151.983L227.802 156.861C227.802 156.861 227.687 156.822 227.554 156.783C227.116 156.704 226.734 156.816 226.388 157.119C226.043 157.422 225.791 157.992 225.633 158.831C225.455 159.745 225.431 160.394 225.524 160.757C225.617 161.12 225.807 161.331 226.093 161.39C226.436 161.45 226.723 161.261 226.993 160.824C227.263 160.387 227.573 159.683 227.942 158.713C228.408 157.476 228.854 156.467 229.279 155.669C229.704 154.87 230.299 154.226 231.028 153.715C231.756 153.205 232.673 153.058 233.759 153.256C234.731 153.435 235.51 153.917 236.077 154.684C236.645 155.451 237.001 156.426 237.146 157.591C237.291 158.756 237.225 160.033 236.987 161.406C236.611 163.445 235.932 165.062 234.951 166.238L234.951 166.257Z" fill="#231F20"/>
<path d="M228.648 184.646C227.957 185.252 227.21 185.648 226.388 185.814C225.567 185.98 224.785 185.918 224.043 185.608L223.605 185.433C222.863 185.123 222.256 184.623 221.803 183.914C221.35 183.205 221.107 182.402 221.056 181.486C221.005 180.57 221.163 179.674 221.551 178.761L223.083 175.108L218.288 173.111L220.362 168.164L233.833 173.786L230.246 182.386C229.878 183.281 229.338 184.04 228.667 184.646L228.648 184.646ZM226.089 176.368L225.178 178.537C225.003 178.974 224.962 179.375 225.112 179.719C225.244 180.064 225.471 180.313 225.776 180.43L226.004 180.527C226.308 180.643 226.633 180.645 226.977 180.495C227.322 180.344 227.591 180.06 227.784 179.603L228.695 177.435L226.108 176.349L226.089 176.368Z" fill="#231F20"/>
<path d="M218.224 197.074L219.342 195.345L212.351 190.815L211.233 192.544L208.593 190.828L213.778 182.811L216.419 184.527L215.301 186.256L222.292 190.786L223.41 189.057L226.031 190.753L220.846 198.77L218.224 197.074Z" fill="#231F20"/>
<path d="M209.142 211.494C208.415 211.813 207.689 211.961 206.983 211.918C206.278 211.875 205.65 211.604 205.138 211.124C204.759 210.778 204.495 210.318 204.326 209.783C204.158 209.228 204.105 208.675 204.185 208.084C204.246 207.493 204.46 206.96 204.787 206.485L204.711 206.408C203.888 206.918 203.085 207.123 202.284 207.003C201.484 206.883 200.742 206.515 200.06 205.862C199.567 205.401 199.111 205.074 198.654 204.861C198.198 204.648 197.74 204.702 197.261 205.023L196.635 204.428C196.983 203.667 197.58 202.831 198.445 201.921C199.271 201.049 200.057 200.539 200.764 200.391C201.471 200.243 202.194 200.515 202.914 201.188C203.597 201.822 204.243 202.246 204.852 202.441C205.461 202.636 206.093 202.373 206.746 201.69L207.764 200.609L203.65 196.728L207.243 192.936L217.842 202.966L211.078 210.114C210.502 210.72 209.85 211.193 209.123 211.513L209.142 211.494ZM210.134 202.857L208.271 204.829C208.021 205.095 207.885 205.38 207.864 205.704C207.862 206.029 207.936 206.296 208.164 206.488L208.316 206.642C208.524 206.853 208.81 206.932 209.115 206.895C209.44 206.859 209.708 206.709 209.958 206.443L211.822 204.471L210.115 202.857L210.134 202.857Z" fill="#231F20"/>
<path d="M190.93 221.771L197.006 217.576L195.796 215.832L189.95 219.876L188.098 217.193L193.944 213.149L192.602 211.213L186.526 215.408L184.12 212.835L194.931 205.352L203.227 217.35L192.417 224.834L190.93 221.771Z" fill="#231F20"/>
<path d="M176.596 231.141C175.299 231.056 174.138 230.705 173.131 230.068C172.124 229.432 171.385 228.588 170.954 227.516L170.259 225.833C169.808 224.761 169.72 223.635 169.976 222.473C170.232 221.311 170.792 220.246 171.657 219.26C172.522 218.273 173.596 217.517 174.878 216.992L182.167 213.968L187.763 227.437L180.474 230.46C179.192 231.005 177.893 231.226 176.596 231.141ZM178.45 219.152L176.633 219.903C175.963 220.185 175.502 220.602 175.193 221.172C174.884 221.742 174.861 222.295 175.087 222.85L176.476 226.217C176.701 226.772 177.119 227.137 177.747 227.332C178.356 227.527 179.005 227.474 179.656 227.212L181.473 226.46L178.45 219.171L178.45 219.152Z" fill="#231F20"/>
<path d="M114.873 231.53C113.792 230.435 113.457 229.193 113.848 227.765L113.926 227.517L118.649 228.846L118.648 228.922C118.512 229.322 118.586 229.685 118.851 230.03C119.116 230.375 119.591 230.646 120.277 230.841C120.943 231.036 121.477 231.097 121.859 231.042C122.241 230.988 122.471 230.817 122.549 230.57C122.646 230.246 122.515 229.959 122.154 229.651C121.794 229.344 121.262 229.035 120.539 228.668L118.466 227.643C115.576 226.212 114.443 224.449 115.01 222.392C115.479 220.716 116.497 219.674 118.045 219.245C119.593 218.817 121.538 218.963 123.881 219.627C125.176 219.998 126.317 220.502 127.324 221.138C128.331 221.775 129.051 222.523 129.522 223.385C129.993 224.247 130.083 225.182 129.809 226.173L129.731 226.42C129.692 226.534 129.673 226.61 129.634 226.667L124.873 225.319C124.873 225.319 124.931 225.205 124.97 225.072C125.087 224.653 125.014 224.252 124.73 223.888C124.446 223.523 123.914 223.214 123.095 222.98C122.2 222.726 121.552 222.626 121.189 222.7C120.826 222.755 120.596 222.925 120.518 223.211C120.42 223.535 120.59 223.86 120.989 224.149C121.406 224.457 122.072 224.824 123.004 225.288C124.183 225.868 125.152 226.39 125.912 226.891C126.672 227.392 127.259 228.025 127.693 228.811C128.126 229.596 128.197 230.512 127.884 231.578C127.611 232.53 127.072 233.252 126.248 233.742C125.424 234.233 124.431 234.494 123.248 234.524C122.064 234.554 120.806 234.393 119.473 234.003C117.474 233.436 115.934 232.606 114.854 231.53L114.873 231.53Z" fill="#231F20"/>
<path d="M97.5453 220.541L101.481 222.59L106.602 212.76L111.318 215.214L106.216 225.044L110.151 227.093L108.528 230.211L95.922 223.659L97.5453 220.541Z" fill="#231F20"/>
<path d="M88.0914 199.016L92.3798 202.555L91.5417 205.22L95.8301 208.759L98.2621 207.402L102.247 210.691L88.4408 218.231L83.2984 213.999L88.0723 199.015L88.0914 199.016ZM88.9537 212.815L92.9385 210.362L90.5286 208.38L88.8588 212.739L88.9537 212.815Z" fill="#231F20"/>
<path d="M77.0791 193.808L81.471 190.384L84.7438 194.584L80.3519 198.008L76.8122 208.154L73.1042 203.398L75.2553 198.375L75.1797 198.279L69.7557 199.102L66.3693 194.768L77.0411 193.789L77.0791 193.808Z" fill="#231F20"/>
<path d="M67.0472 158.77L68.7689 163.838L59.9152 166.851L59.9527 166.946L69.7984 166.821L71.7821 172.653L63.9014 178.554L63.9388 178.668L72.7924 175.655L74.3645 180.264L60.5391 184.961L57.7133 176.643L64.2709 171.745L64.2334 171.649L56.0664 171.824L53.2218 163.467L67.0472 158.77Z" fill="#231F20"/>
<path d="M52.5291 144.23C53.0522 143.031 53.7644 142.082 54.7042 141.344C55.644 140.607 56.696 140.213 57.8601 140.163L60.074 140.064C61.2381 140.014 62.3237 140.307 63.3307 140.944C64.3376 141.58 65.152 142.482 65.7742 143.612C66.3963 144.742 66.7503 146.022 66.8173 147.416L66.8841 148.847C66.9512 150.24 66.7327 151.536 66.2096 152.735C65.6866 153.933 64.9743 154.882 64.0345 155.62C63.0948 156.358 62.0428 156.752 60.8786 156.801L58.6648 156.901C57.5006 156.951 56.4151 156.657 55.4081 156.021C54.4011 155.385 53.5867 154.482 52.9455 153.353C52.3234 152.223 51.9694 150.942 51.9024 149.549L51.8355 148.117C51.7685 146.724 51.987 145.428 52.51 144.23L52.5291 144.23ZM55.8646 150.491C56.3002 150.971 56.8139 151.184 57.4056 151.15L61.509 150.948C62.1006 150.914 62.5984 150.65 62.9834 150.138C63.3684 149.625 63.5442 149.016 63.5108 148.29L63.5117 148.157C63.4783 147.451 63.2342 146.858 62.7985 146.378C62.3629 145.898 61.8492 145.685 61.2575 145.719L57.1541 145.921C56.5625 145.955 56.0646 146.219 55.6797 146.731C55.2947 147.244 55.1189 147.853 55.1523 148.578L55.1514 148.712C55.1848 149.418 55.4289 150.011 55.8646 150.491Z" fill="#231F20"/>
<path d="M57.7663 122.686L57.0503 127.07L67.99 128.84L67.1348 134.081L56.1951 132.311L55.4792 136.694L52.0105 136.137L54.2785 122.129L57.7472 122.686L57.7663 122.686Z" fill="#231F20"/>
<path d="M61.5114 110.331L60.8307 112.291L68.6924 114.996L69.3732 113.035L72.3427 114.066L69.2301 123.089L66.2606 122.058L66.9414 120.097L59.0797 117.393L58.3989 119.354L55.4483 118.342L58.5609 109.319L61.5114 110.331Z" fill="#231F20"/>
<path d="M78.1404 102.923L75.0126 108.492L59.7284 105.891L62.4508 101.044L71.845 102.824L71.9028 102.729L65.482 95.6457L68.0112 91.1598L78.1403 102.942L78.1404 102.923Z" fill="#231F20"/>
<path d="M92.8949 84.7425L89.1661 88.877L86.5395 87.9247L82.8107 92.0592L84.0534 94.5477L80.5937 98.3788L73.6662 84.2714L78.1254 79.3214L92.8758 84.7424L92.8949 84.7425ZM79.0608 84.9941L81.3423 89.0731L83.4182 86.7592L79.1378 84.8992L79.0417 84.994L79.0608 84.9941Z" fill="#231F20"/>
<path d="M98.2761 67.3587L94.6719 69.9677L101.176 78.9399L96.8812 82.0595L90.3775 73.0873L86.7733 75.6962L84.7125 72.8588L96.1963 64.5212L98.2571 67.3586L98.2761 67.3587Z" fill="#231F20"/>
<path d="M113.246 59.9023L106.547 63.0059L107.45 64.9389L113.9 61.9481L115.273 64.8954L108.823 67.8862L109.82 70.0297L116.519 66.9261L118.445 69.8771L106.522 75.4072L100.39 62.1637L112.313 56.6336L113.265 59.9025L113.246 59.9023Z" fill="#231F20"/>
<path d="M128.973 53.1393C130.231 53.4338 131.314 53.9943 132.206 54.7825C133.097 55.5707 133.663 56.5475 133.923 57.6748L134.331 59.4519C134.591 60.5793 134.488 61.7043 134.022 62.8078C133.557 63.9113 132.826 64.8604 131.809 65.6741C130.793 66.4877 129.606 67.0522 128.249 67.3675L120.549 69.1099L117.343 54.8746L125.043 53.1323C126.4 52.817 127.716 52.8257 128.974 53.1202L128.973 53.1393ZM125.081 64.6182L126.992 64.1921C127.68 64.0249 128.236 63.7043 128.62 63.1917C129.005 62.6791 129.143 62.1267 129.013 61.5535L128.216 57.9995C128.086 57.4262 127.727 56.985 127.156 56.695C126.586 56.4051 125.957 56.3437 125.25 56.4916L123.339 56.9177L125.081 64.6182Z" fill="#231F20"/>
<path d="M156.835 66.5832C160.08 66.6048 162.729 63.9914 162.75 60.7461C162.772 57.5008 160.159 54.8526 156.913 54.831C153.668 54.8095 151.02 57.4228 150.998 60.6681C150.977 63.9134 153.59 66.5617 156.835 66.5832Z" fill="#070808"/>
<path d="M150.027 235.714C153.272 235.736 155.92 233.122 155.942 229.877C155.963 226.632 153.35 223.983 150.105 223.962C146.86 223.94 144.211 226.554 144.19 229.799C144.168 233.044 146.782 235.693 150.027 235.714Z" fill="#231F20"/>
<path d="M193.121 107.177L158.418 106.946C157.617 106.941 156.964 107.586 156.958 108.386L156.786 134.352C156.781 135.153 157.425 135.806 158.226 135.812L192.93 136.042C193.73 136.047 194.384 135.402 194.389 134.602L194.562 108.636C194.567 107.835 193.922 107.182 193.121 107.177Z" fill="#608964"/>
<path d="M120.419 117.361C120.419 117.361 124.473 110.348 134.642 110.396C148.607 110.47 144.625 123.951 144.625 123.951C144.625 123.951 141.486 128.433 148.606 153.684C149.352 156.303 149.228 163.457 146.681 167.732C144.135 172.008 137.683 175.285 132.821 174.871C127.958 174.438 120.046 173.546 115.945 164.857C111.843 156.168 112.838 150.05 113.194 148.107C118.129 120.379 120.419 117.38 120.419 117.38L120.419 117.361Z" fill="#3F61AC"/>
<path d="M156.401 134.808L156.58 107.832C156.585 107.088 157.181 106.5 157.925 106.505L193.678 106.742C194.422 106.747 195.009 107.343 195.004 108.087L194.825 135.063C194.82 135.807 194.225 136.395 193.481 136.39L157.728 136.153C156.984 136.148 156.396 135.552 156.401 134.808ZM157.916 107.764C157.916 107.764 157.84 107.802 157.84 107.84L157.661 134.817C157.661 134.817 157.698 134.893 157.736 134.893L193.489 135.131C193.489 135.131 193.566 135.093 193.566 135.055L193.745 108.078C193.745 108.078 193.707 108.002 193.669 108.002L157.916 107.764Z" fill="#010101" stroke="#080909" stroke-width="0.25" stroke-miterlimit="10"/>
<path d="M175.673 125.912C175.826 125.913 175.998 125.857 176.113 125.743L194.565 108.084C194.815 107.838 194.818 107.437 194.571 107.187C194.325 106.938 193.924 106.935 193.675 107.181L175.664 124.424L157.846 106.924C157.599 106.675 157.199 106.691 156.949 106.918C156.699 107.165 156.716 107.566 156.943 107.815L175.197 125.737C175.311 125.852 175.482 125.911 175.635 125.912L175.673 125.912Z" fill="#010101" stroke="#080909" stroke-width="0.25" stroke-miterlimit="10"/>
<path d="M193.921 136.22C194.073 136.221 194.245 136.165 194.361 136.052C194.61 135.805 194.613 135.405 194.367 135.155L180.478 120.658C180.231 120.408 179.831 120.406 179.581 120.652C179.331 120.898 179.329 121.299 179.575 121.549L193.464 136.046C193.578 136.18 193.749 136.238 193.921 136.24L193.921 136.22Z" fill="#010101" stroke="#080909" stroke-width="0.25" stroke-miterlimit="10"/>
<path d="M157.214 135.977C157.386 135.978 157.539 135.922 157.673 135.79L171.753 121.478C172.003 121.232 171.986 120.831 171.759 120.582C171.513 120.332 171.112 120.348 170.862 120.576L156.782 134.887C156.533 135.133 156.549 135.534 156.776 135.784C156.89 135.899 157.062 135.957 157.214 135.958L157.214 135.977Z" fill="#010101" stroke="#080909" stroke-width="0.25" stroke-miterlimit="10"/>
<path d="M128.737 174.901C125.155 174.228 121.865 172.547 119.23 170.068C114.528 165.668 112.339 159.014 112.554 149.743C112.739 141.998 114.547 134.015 116.02 127.596C116.197 126.834 116.355 126.11 116.512 125.405C118.222 117.784 121.006 112.308 124.786 109.128C127.875 106.516 130.853 106.192 132.361 106.202C135.795 106.225 138.29 106.89 140.245 108.353C142.106 109.739 143.523 111.866 144.703 115.098C146.015 118.656 145.549 122.717 145.103 126.644C144.799 129.427 144.474 132.306 144.762 134.979C144.996 137.06 145.725 139.317 146.566 141.936C148.286 147.29 150.436 153.943 149.121 162.33C148.264 167.8 144.362 172.238 138.682 174.204C136.617 174.915 134.459 175.263 132.265 175.249C131.082 175.241 129.9 175.119 128.718 174.901L128.737 174.901ZM132.333 107.442C130.998 107.433 128.363 107.74 125.581 110.068C122.012 113.078 119.364 118.288 117.712 125.642C117.555 126.347 117.378 127.089 117.221 127.852C115.767 134.214 113.959 142.139 113.794 149.77C113.582 158.659 115.638 165.007 120.076 169.139C124.968 173.712 131.941 175.189 138.29 172.999C143.529 171.183 147.124 167.124 147.901 162.131C149.157 154.049 147.063 147.549 145.381 142.31C144.521 139.614 143.773 137.3 143.521 135.105C143.215 132.298 143.54 129.362 143.864 126.502C144.31 122.537 144.736 118.819 143.517 115.548C141.325 109.581 138.4 107.482 132.333 107.442Z" fill="#010101" stroke="#080909" stroke-width="0.5" stroke-miterlimit="10"/>
<path d="M120.633 194.327C120.805 194.328 120.977 194.253 121.112 194.12C121.227 193.987 123.957 190.914 124.638 183.096C125.195 176.823 124.004 172.313 123.948 172.121C123.855 171.777 123.513 171.584 123.169 171.677C122.825 171.77 122.631 172.113 122.725 172.457C122.724 172.514 123.897 176.967 123.38 182.993C122.739 190.334 120.183 193.255 120.163 193.274C119.933 193.54 119.949 193.921 120.215 194.171C120.328 194.286 120.481 194.326 120.633 194.327Z" fill="#010101" stroke="#080909" stroke-width="0.5" stroke-miterlimit="10"/>
<path d="M134.713 194.421C134.866 194.422 135.019 194.365 135.134 194.252C135.268 194.119 138.532 191.107 139.328 183.271C139.859 178.066 138.437 173.802 138.381 173.611C138.269 173.286 137.907 173.111 137.582 173.224C137.257 173.336 137.083 173.697 137.195 174.022C137.195 174.061 138.579 178.229 138.089 183.148C137.353 190.451 134.32 193.292 134.301 193.311C134.051 193.539 134.03 193.939 134.257 194.208C134.389 194.342 134.541 194.42 134.713 194.421Z" fill="#010101" stroke="#080909" stroke-width="0.5" stroke-miterlimit="10"/>
<path d="M144.92 194.488C144.92 194.488 144.977 194.488 144.996 194.488C145.34 194.452 145.59 194.129 145.554 193.786C145.428 192.678 144.919 191.797 144.046 191.124C141.578 189.238 136.976 189.875 136.785 189.893C136.441 189.948 136.21 190.27 136.246 190.614C136.301 190.958 136.624 191.189 136.967 191.153C137.024 191.153 141.245 190.571 143.276 192.13C143.883 192.592 144.204 193.185 144.294 193.93C144.33 194.255 144.596 194.485 144.92 194.488Z" fill="#010101" stroke="#080909" stroke-width="0.5" stroke-miterlimit="10"/>
<path d="M130.497 194.391C130.497 194.391 130.554 194.391 130.573 194.391C130.917 194.355 131.167 194.033 131.131 193.689C131.005 192.582 130.496 191.682 129.623 190.989C127.174 189.065 122.611 189.588 122.42 189.625C122.076 189.66 121.826 189.983 121.862 190.327C121.898 190.67 122.221 190.921 122.564 190.885C122.621 190.885 126.803 190.398 128.834 191.995C129.441 192.476 129.781 193.07 129.871 193.833C129.907 194.158 130.173 194.389 130.497 194.391Z" fill="#010101" stroke="#080909" stroke-width="0.5" stroke-miterlimit="10"/>
<path d="M151.027 145.456C152.61 145.467 154.424 145.212 156.185 144.327C159.133 142.877 161.231 140.106 162.441 136.088C162.538 135.764 162.35 135.4 162.026 135.303C161.684 135.205 161.339 135.394 161.241 135.717C160.129 139.392 158.243 141.898 155.64 143.178C151.543 145.193 146.976 143.502 146.938 143.483C146.614 143.366 146.251 143.517 146.134 143.84C146.017 144.164 146.168 144.527 146.491 144.644C146.624 144.683 148.509 145.401 151.027 145.418L151.027 145.456Z" fill="#010101" stroke="#080909" stroke-width="0.5" stroke-miterlimit="10"/>
<path d="M130.416 160.641C131.122 160.645 131.79 160.593 132.42 160.521C132.763 160.485 133.014 160.162 132.959 159.818C132.923 159.475 132.6 159.224 132.256 159.279C128.246 159.806 125.182 158.622 123.141 155.765C119.625 150.82 122.158 142.881 122.177 142.804C122.294 142.481 122.106 142.117 121.782 142.019C121.458 141.903 121.095 142.091 120.997 142.415C120.88 142.758 118.25 151.04 122.125 156.503C124.431 159.762 127.649 160.642 130.435 160.66L130.416 160.641Z" fill="#010101" stroke="#080909" stroke-width="0.5" stroke-miterlimit="10"/>
<path d="M122.604 161.906C122.947 161.908 123.235 161.605 123.219 161.261C123.221 160.918 122.937 160.649 122.593 160.647C122.593 160.647 120.972 160.579 119.92 158.149C119.788 157.824 119.408 157.668 119.082 157.819C118.757 157.95 118.621 158.331 118.752 158.656C120.105 161.794 122.337 161.904 122.585 161.906L122.604 161.906Z" fill="#010101" stroke="#080909" stroke-width="0.5" stroke-miterlimit="10"/>
<path d="M118.057 122.552C118.153 122.553 118.248 122.534 118.344 122.478C118.65 122.327 118.767 121.946 118.617 121.621C118.617 121.583 116.79 118.003 117.302 115.545C117.303 115.45 117.342 115.393 117.361 115.336C117.76 115.567 118.574 116.584 119.177 117.637C119.347 117.944 119.747 118.042 120.034 117.872C120.341 117.702 120.439 117.321 120.269 117.015C119.59 115.827 118.268 113.873 117.102 114.056C116.74 114.11 116.261 114.374 116.083 115.289C115.472 118.185 117.412 122.033 117.506 122.186C117.619 122.397 117.828 122.532 118.057 122.533L118.057 122.552Z" fill="#010101"/>
<path d="M144.59 126.317C144.762 126.318 144.934 126.243 145.05 126.11C145.184 125.977 148.201 122.735 148.278 119.759C148.284 118.938 148.058 118.422 147.544 118.209C146.555 117.82 145.192 119.128 144.461 119.943C144.23 120.209 144.247 120.61 144.512 120.84C144.778 121.071 145.179 121.055 145.409 120.789C145.967 120.163 146.658 119.595 147.002 119.445C147.002 119.502 147.001 119.598 147 119.731C146.926 122.211 144.14 125.207 144.121 125.245C143.89 125.492 143.887 125.892 144.153 126.142C144.267 126.257 144.419 126.315 144.571 126.317L144.59 126.317Z" fill="#010101" stroke="#080909" stroke-width="0.25" stroke-miterlimit="10"/>
<path d="M129.235 134.495C130.17 134.501 131.01 134.335 131.603 134.11C131.928 133.998 132.102 133.637 131.99 133.311C131.878 132.986 131.516 132.812 131.191 132.925C131.038 132.981 127.233 134.253 125.536 131.17C125.367 130.864 124.986 130.747 124.679 130.916C124.373 131.086 124.256 131.467 124.426 131.773C125.576 133.86 127.537 134.465 129.235 134.476L129.235 134.495Z" fill="#010101"/>
<path d="M140.907 120.797C141.231 120.799 141.5 120.553 141.54 120.229C141.581 119.886 139.009 119.316 138.33 118.09C138.16 117.784 137.779 117.686 137.473 117.855C137.167 118.025 137.069 118.406 137.238 118.712C138.257 120.513 140.754 120.777 140.85 120.797C140.869 120.797 140.888 120.797 140.907 120.797Z" fill="#010101"/>
<path d="M127.465 119.449C128.972 119.459 130.296 118.399 130.353 118.342C130.622 118.115 130.663 117.715 130.435 117.446C130.208 117.177 129.827 117.137 129.558 117.364C129.539 117.364 128.005 118.613 126.806 118.052C126.483 117.916 126.12 118.047 125.965 118.37C125.829 118.694 125.96 119.057 126.284 119.212C126.683 119.386 127.083 119.465 127.465 119.468L127.465 119.449Z" fill="#010101"/>
<path d="M133.061 141.503C133.061 141.503 133.233 141.504 133.328 141.505C140.235 141.494 144.945 139.045 145.136 138.951C145.443 138.781 145.56 138.4 145.409 138.094C145.239 137.787 144.859 137.67 144.552 137.821C144.514 137.84 139.9 140.213 133.337 140.227C131.085 140.231 128.798 139.968 126.512 139.437C126.169 139.359 125.843 139.567 125.765 139.909C125.686 140.252 125.894 140.578 126.237 140.657C128.523 141.187 130.81 141.45 133.081 141.465L133.061 141.503Z" fill="#010101" stroke="#080909" stroke-width="0.5" stroke-miterlimit="10"/>
<path d="M121.952 139.35C122.2 139.351 122.449 139.2 122.546 138.953C122.663 138.629 122.513 138.266 122.189 138.13C118.022 136.538 115.421 134.613 115.402 134.594C115.117 134.382 114.735 134.437 114.523 134.721C114.311 135.006 114.366 135.388 114.651 135.6C114.765 135.677 117.404 137.66 121.743 139.31C121.819 139.33 121.895 139.349 121.971 139.35L121.952 139.35Z" fill="#010101" stroke="#080909" stroke-width="0.5" stroke-miterlimit="10"/>
<path d="M130.387 124.676L134.946 124.935" stroke="black" stroke-width="0.5" stroke-miterlimit="10"/>
<path d="M128.323 125.197C128.871 125.2 129.318 124.759 129.322 124.211C129.326 123.663 128.884 123.216 128.337 123.213C127.789 123.209 127.342 123.65 127.338 124.198C127.334 124.746 127.775 125.193 128.323 125.197Z" fill="#231F20" stroke="#010101" stroke-miterlimit="10"/>
<path d="M137 125.827C137.548 125.83 137.995 125.389 137.999 124.841C138.003 124.293 137.561 123.846 137.013 123.843C136.466 123.839 136.018 124.28 136.015 124.828C136.011 125.376 136.452 125.823 137 125.827Z" fill="#231F20" stroke="#010101" stroke-miterlimit="10"/>
<path d="M153.387 106.114C153.387 106.114 148.322 113.197 140.683 114.214C133.045 115.232 128.034 111.364 128.034 111.364C128.034 111.364 125.022 116.743 120.438 117.361C120.438 117.361 117.524 113.793 116.87 114.571C115.159 116.601 117.461 120.413 117.228 121.08C116.722 122.526 116.093 125.27 116.093 125.27C116.093 125.27 114.582 123.008 114.114 118.75C113.646 114.493 114.656 103.166 124.809 102.852C127.996 96.9397 143.502 94.7913 153.406 106.114L153.387 106.114Z" fill="black"/>
<path d="M128.325 124.872C128.694 124.875 128.995 124.578 128.998 124.209C129 123.84 128.703 123.539 128.334 123.537C127.966 123.534 127.665 123.831 127.662 124.2C127.66 124.569 127.957 124.87 128.325 124.872Z" fill="#1A2D1E" stroke="#CBD2CE" stroke-miterlimit="10"/>
<path d="M137.002 125.503C137.371 125.505 137.672 125.208 137.675 124.84C137.677 124.471 137.38 124.17 137.011 124.168C136.642 124.165 136.342 124.462 136.339 124.831C136.337 125.2 136.634 125.501 137.002 125.503Z" fill="#1A2D1E" stroke="#CBD2CE" stroke-miterlimit="10"/>
<path d="M128.955 124.839C129.303 124.841 129.587 124.561 129.589 124.213C129.591 123.865 129.311 123.582 128.964 123.579C128.616 123.577 128.332 123.857 128.33 124.205C128.328 124.552 128.608 124.836 128.955 124.839Z" fill="#231F20"/>
<path d="M137.67 125.469C138.018 125.472 138.302 125.192 138.304 124.844C138.306 124.496 138.026 124.213 137.679 124.21C137.331 124.208 137.047 124.488 137.045 124.836C137.043 125.183 137.323 125.467 137.67 125.469Z" fill="#231F20"/>
<path d="M127.739 126.929C126.234 126.614 125.271 125.119 125.606 123.614C125.921 122.109 127.415 121.146 128.92 121.48C129.644 121.638 130.271 122.062 130.687 122.694C131.083 123.326 131.231 124.071 131.073 124.795C130.916 125.519 130.492 126.146 129.86 126.562C129.4 126.864 128.865 127.013 128.33 127.009C128.14 127.008 127.949 126.988 127.758 126.948L127.739 126.929ZM126.825 123.889C126.648 124.709 127.176 125.533 127.996 125.71C128.396 125.789 128.797 125.715 129.142 125.507C129.487 125.281 129.718 124.939 129.816 124.539C129.895 124.139 129.821 123.738 129.614 123.393C129.387 123.048 129.045 122.817 128.645 122.719C128.55 122.699 128.435 122.679 128.34 122.678C127.634 122.674 126.982 123.165 126.844 123.889L126.825 123.889Z" fill="black"/>
<path d="M136.435 127.56C134.93 127.245 133.967 125.75 134.302 124.245C134.617 122.74 136.111 121.777 137.616 122.111C138.34 122.269 138.967 122.692 139.383 123.325C139.779 123.957 139.927 124.702 139.769 125.426C139.612 126.15 139.188 126.777 138.556 127.192C138.096 127.495 137.561 127.644 137.026 127.64C136.836 127.639 136.645 127.619 136.454 127.579L136.435 127.56ZM135.521 124.52C135.344 125.339 135.872 126.163 136.692 126.341C137.092 126.419 137.493 126.346 137.838 126.138C138.183 125.912 138.414 125.57 138.512 125.17C138.591 124.77 138.517 124.368 138.31 124.024C138.083 123.679 137.741 123.447 137.341 123.349C137.246 123.33 137.131 123.31 137.036 123.309C136.33 123.305 135.678 123.796 135.54 124.52L135.521 124.52Z" fill="black"/>
</svg>
